<svg xmlns="http://www.w3.org/2000/svg" width="1060" height="600" viewBox="0 0 1060 600" role="img" aria-label="anitorrent search flow: Hayase query fans out to six sources in parallel, an AniList-to-AniDB map feeds AnimeTosho, results pass through the shared filter, then Hayase merges and de-duplicates by infohash before showing results">
  <defs>
    <radialGradient id="vig" cx="50%" cy="42%" r="75%">
      <stop offset="0%" stop-color="#06210f"/>
      <stop offset="100%" stop-color="#03120a"/>
    </radialGradient>
    <pattern id="scan" width="3" height="3" patternUnits="userSpaceOnUse">
      <rect width="3" height="3" fill="none"/>
      <rect width="3" height="1.2" fill="#000000" opacity="0.22"/>
    </pattern>
    <filter id="glow" x="-20%" y="-20%" width="140%" height="140%">
      <feGaussianBlur stdDeviation="1.6" result="b"/>
      <feMerge><feMergeNode in="b"/><feMergeNode in="SourceGraphic"/></feMerge>
    </filter>
  </defs>

  <rect x="6" y="6" width="1048" height="588" rx="22" fill="url(#vig)" stroke="#0c3a1f" stroke-width="3"/>

  <g filter="url(#glow)">
  <line x1="530.0" y1="96.0" x2="120.0" y2="190.0" stroke="#2bd873" stroke-width="1.6"/>
  <path fill="#2bd873" d="M120.0 190.0 L127.0 184.4 L128.8 192.0 Z"/>
  <line x1="530.0" y1="96.0" x2="284.0" y2="190.0" stroke="#2bd873" stroke-width="1.6"/>
  <path fill="#2bd873" d="M284.0 190.0 L290.2 183.5 L293.0 190.8 Z"/>
  <line x1="530.0" y1="96.0" x2="448.0" y2="190.0" stroke="#2bd873" stroke-width="1.6"/>
  <path fill="#2bd873" d="M448.0 190.0 L450.4 181.3 L456.3 186.5 Z"/>
  <line x1="530.0" y1="96.0" x2="612.0" y2="190.0" stroke="#2bd873" stroke-width="1.6"/>
  <path fill="#2bd873" d="M612.0 190.0 L603.7 186.5 L609.6 181.3 Z"/>
  <line x1="530.0" y1="96.0" x2="776.0" y2="190.0" stroke="#2bd873" stroke-width="1.6"/>
  <path fill="#2bd873" d="M776.0 190.0 L767.0 190.8 L769.8 183.5 Z"/>
  <line x1="530.0" y1="96.0" x2="940.0" y2="190.0" stroke="#2bd873" stroke-width="1.6"/>
  <path fill="#2bd873" d="M940.0 190.0 L931.2 192.0 L933.0 184.4 Z"/>
  <line x1="120.0" y1="256.0" x2="530.0" y2="322.0" stroke="#2bd873" stroke-width="1.6"/>
  <path fill="#2bd873" d="M530.0 322.0 L521.4 324.6 L522.6 316.8 Z"/>
  <line x1="284.0" y1="256.0" x2="530.0" y2="322.0" stroke="#2bd873" stroke-width="1.6"/>
  <path fill="#2bd873" d="M530.0 322.0 L521.2 323.7 L523.2 316.1 Z"/>
  <line x1="448.0" y1="256.0" x2="530.0" y2="322.0" stroke="#2bd873" stroke-width="1.6"/>
  <path fill="#2bd873" d="M530.0 322.0 L521.2 320.0 L526.1 313.9 Z"/>
  <line x1="612.0" y1="256.0" x2="530.0" y2="322.0" stroke="#2bd873" stroke-width="1.6"/>
  <path fill="#2bd873" d="M530.0 322.0 L533.9 313.9 L538.8 320.0 Z"/>
  <line x1="776.0" y1="256.0" x2="530.0" y2="322.0" stroke="#2bd873" stroke-width="1.6"/>
  <path fill="#2bd873" d="M530.0 322.0 L536.8 316.1 L538.8 323.7 Z"/>
  <line x1="940.0" y1="256.0" x2="530.0" y2="322.0" stroke="#2bd873" stroke-width="1.6"/>
  <path fill="#2bd873" d="M530.0 322.0 L537.4 316.8 L538.6 324.6 Z"/>
  <line x1="284.0" y1="154.0" x2="284.0" y2="190.0" stroke="#1f8a4d" stroke-width="1.6" stroke-dasharray="3 3"/>
  <path fill="#1f8a4d" d="M284.0 190.0 L280.1 181.9 L287.9 181.9 Z"/>
  <line x1="530.0" y1="374.0" x2="530.0" y2="424.0" stroke="#2bd873" stroke-width="1.6"/>
  <path fill="#2bd873" d="M530.0 424.0 L526.1 415.9 L533.9 415.9 Z"/>
  <line x1="530.0" y1="474.0" x2="530.0" y2="516.0" stroke="#2bd873" stroke-width="1.6"/>
  <path fill="#2bd873" d="M530.0 516.0 L526.1 507.9 L533.9 507.9 Z"/>
  <rect x="310" y="42" width="440" height="54" rx="7" fill="#06190f" stroke="#3dff88" stroke-width="2"/>
  <path fill="#3dff88" d="M461.44 67.42L459.22 67.42L459.22 53.28L461.44 53.28L461.44 59.26L463.20 59.26L463.20 57.26L465.44 57.26L465.44 59.26L467.20 59.26L467.20 53.28L469.45 53.28L469.45 67.42L467.20 67.42L467.20 61.44L461.44 61.44L461.44 67.42M479.80 67.42L473.59 67.42L473.59 65.44L471.59 65.44L471.59 59.26L473.59 59.26L473.59 57.26L479.80 57.26L479.80 59.26L481.82 59.26L481.82 65.22L483.82 65.22L483.82 67.42L481.60 67.42L481.60 65.44L479.80 65.44L479.80 67.42M473.81 59.46L473.81 65.22L479.58 65.22L479.58 59.46L473.81 59.46M494.12 71.41L487.89 71.41L487.89 69.43L485.89 69.43L485.89 67.23L488.11 67.23L488.11 69.21L493.90 69.21L493.90 65.44L487.89 65.44L487.89 63.44L485.89 63.44L485.89 57.26L488.11 57.26L488.11 63.22L493.90 63.22L493.90 57.26L496.12 57.26L496.12 69.43L494.12 69.43L494.12 71.41M506.47 67.42L500.27 67.42L500.27 65.44L498.27 65.44L498.27 59.26L500.27 59.26L500.27 57.26L506.47 57.26L506.47 59.26L508.50 59.26L508.50 65.22L510.50 65.22L510.50 67.42L508.28 67.42L508.28 65.44L506.47 65.44L506.47 67.42M500.49 59.46L500.49 65.22L506.25 65.22L506.25 59.46L500.49 59.46M520.77 67.42L512.57 67.42L512.57 65.22L520.55 65.22L520.55 63.44L514.57 63.44L514.57 61.44L512.57 61.44L512.57 59.26L514.57 59.26L514.57 57.26L522.80 57.26L522.80 59.46L514.79 59.46L514.79 61.22L520.77 61.22L520.77 63.22L522.80 63.22L522.80 65.44L520.77 65.44L520.77 67.42M533.15 67.42L526.94 67.42L526.94 65.44L524.94 65.44L524.94 59.26L526.94 59.26L526.94 57.26L533.15 57.26L533.15 59.26L535.17 59.26L535.17 61.44L532.93 61.44L532.93 59.46L527.16 59.46L527.16 61.22L531.17 61.22L531.17 63.44L527.16 63.44L527.16 65.22L532.93 65.22L532.93 63.20L535.17 63.20L535.17 65.42L533.15 65.42L533.15 67.42M551.77 71.30L549.53 71.30L549.53 67.42L543.54 67.42L543.54 65.44L541.54 65.44L541.54 59.26L543.54 59.26L543.54 57.26L549.75 57.26L549.75 59.26L551.77 59.26L551.77 71.30M543.76 59.46L543.76 65.22L549.53 65.22L549.53 59.46L543.76 59.46M562.12 67.42L555.92 67.42L555.92 65.44L553.92 65.44L553.92 57.26L556.14 57.26L556.14 65.22L561.90 65.22L561.90 57.26L564.15 57.26L564.15 65.44L562.12 65.44L562.12 67.42M574.50 67.42L568.30 67.42L568.30 65.44L566.29 65.44L566.29 59.26L568.30 59.26L568.30 57.26L574.50 57.26L574.50 59.26L576.52 59.26L576.52 61.44L574.28 61.44L574.28 59.46L568.52 59.46L568.52 61.22L572.52 61.22L572.52 63.44L568.52 63.44L568.52 65.22L574.28 65.22L574.28 63.20L576.52 63.20L576.52 65.42L574.50 65.42L574.50 67.42M580.89 67.42L578.67 67.42L578.67 59.26L580.67 59.26L580.67 57.26L586.88 57.26L586.88 59.26L588.90 59.26L588.90 61.44L586.66 61.44L586.66 59.46L580.89 59.46L580.89 67.42M599.28 71.41L593.05 71.41L593.05 69.43L591.05 69.43L591.05 67.23L593.27 67.23L593.27 69.21L599.06 69.21L599.06 65.44L593.05 65.44L593.05 63.44L591.05 63.44L591.05 57.26L593.27 57.26L593.27 63.22L599.06 63.22L599.06 57.26L601.28 57.26L601.28 69.43L599.28 69.43"/>
  <path fill="#1f8a4d" d="M425.35 93.30L421.94 93.30L421.94 92.22L420.86 92.22L420.86 88.96L419.77 88.96L419.77 87.76L420.86 87.76L420.86 85.59L422.06 85.59L422.06 87.76L425.35 87.76L425.35 88.96L422.06 88.96L422.06 92.10L425.23 92.10L425.23 91.01L426.44 91.01L426.44 92.22L425.35 92.22L425.35 93.30M428.78 93.30L427.57 93.30L427.57 87.76L428.78 87.76L428.78 93.30M428.78 86.80L427.57 86.80L427.57 85.59L428.78 85.59L428.78 86.80M435.71 93.30L432.30 93.30L432.30 92.22L431.22 92.22L431.22 88.96L430.13 88.96L430.13 87.76L431.22 87.76L431.22 85.59L432.42 85.59L432.42 87.76L435.71 87.76L435.71 88.96L432.42 88.96L432.42 92.10L435.59 92.10L435.59 91.01L436.80 91.01L436.80 92.22L435.71 92.22L435.71 93.30M439.14 93.30L437.93 93.30L437.93 85.59L439.14 85.59L439.14 93.30M444.96 93.30L441.58 93.30L441.58 92.22L440.48 92.22L440.48 88.85L441.58 88.85L441.58 87.76L444.96 87.76L444.96 88.85L446.06 88.85L446.06 90.04L444.84 90.04L444.84 88.96L441.70 88.96L441.70 89.92L443.88 89.92L443.88 91.13L441.70 91.13L441.70 92.10L444.84 92.10L444.84 91L446.06 91L446.06 92.21L444.96 92.21L444.96 93.30M451.71 93.30L447.23 93.30L447.23 92.10L451.59 92.10L451.59 91.13L448.33 91.13L448.33 90.04L447.23 90.04L447.23 88.85L448.33 88.85L448.33 87.76L452.81 87.76L452.81 88.96L448.45 88.96L448.45 89.92L451.71 89.92L451.71 91.01L452.81 91.01L452.81 92.22L451.71 92.22L451.71 93.30M459.23 90.76L455.85 90.76L455.85 89.55L459.23 89.55L459.23 90.76M466.91 93.30L463.52 93.30L463.52 92.22L462.43 92.22L462.43 88.85L463.52 88.85L463.52 87.76L466.91 87.76L466.91 88.85L468.01 88.85L468.01 90.04L466.79 90.04L466.79 88.96L463.64 88.96L463.64 89.92L465.83 89.92L465.83 91.13L463.64 91.13L463.64 92.10L466.79 92.10L466.79 91L468.01 91L468.01 92.21L466.91 92.21L466.91 93.30M470.39 95.42L469.18 95.42L469.18 88.85L470.27 88.85L470.27 87.76L473.66 87.76L473.66 88.85L474.76 88.85L474.76 92.22L473.66 92.22L473.66 93.30L470.39 93.30L470.39 95.42M470.39 88.96L470.39 92.10L473.54 92.10L473.54 88.96L470.39 88.96M477.14 93.30L475.93 93.30L475.93 87.76L477.14 87.76L477.14 93.30M477.14 86.80L475.93 86.80L475.93 85.59L477.14 85.59L477.14 86.80M482.96 93.30L478.49 93.30L478.49 92.10L482.84 92.10L482.84 91.13L479.58 91.13L479.58 90.04L478.49 90.04L478.49 88.85L479.58 88.85L479.58 87.76L484.07 87.76L484.07 88.96L479.70 88.96L479.70 89.92L482.96 89.92L482.96 91.01L484.07 91.01L484.07 92.22L482.96 92.22L482.96 93.30M489.72 93.30L486.33 93.30L486.33 92.22L485.24 92.22L485.24 88.85L486.33 88.85L486.33 87.76L489.72 87.76L489.72 88.85L490.82 88.85L490.82 92.22L489.72 92.22L489.72 93.30M486.45 88.96L486.45 92.10L489.60 92.10L489.60 88.96L486.45 88.96M496.47 93.30L493.08 93.30L493.08 92.22L491.99 92.22L491.99 88.85L493.08 88.85L493.08 87.76L496.36 87.76L496.36 85.59L497.57 85.59L497.57 92.22L496.47 92.22L496.47 93.30M493.20 88.96L493.20 92.10L496.35 92.10L496.35 88.96L493.20 88.96M503.22 93.30L499.83 93.30L499.83 92.22L498.74 92.22L498.74 88.85L499.83 88.85L499.83 87.76L503.22 87.76L503.22 88.85L504.32 88.85L504.32 90.04L503.10 90.04L503.10 88.96L499.95 88.96L499.95 89.92L502.14 89.92L502.14 91.13L499.95 91.13L499.95 92.10L503.10 92.10L503.10 91L504.32 91L504.32 92.21L503.22 92.21L503.22 93.30M510.74 90.76L507.35 90.76L507.35 89.55L510.74 89.55L510.74 90.76M515.15 93.30L513.94 93.30L513.94 88.85L515.03 88.85L515.03 87.76L518.41 87.76L518.41 88.85L519.52 88.85L519.52 90.04L518.29 90.04L518.29 88.96L515.15 88.96L515.15 93.30M525.16 93.30L521.78 93.30L521.78 92.22L520.69 92.22L520.69 88.85L521.78 88.85L521.78 87.76L525.16 87.76L525.16 88.85L526.27 88.85L526.27 90.04L525.04 90.04L525.04 88.96L521.90 88.96L521.90 89.92L524.08 89.92L524.08 91.13L521.90 91.13L521.90 92.10L525.04 92.10L525.04 91L526.27 91L526.27 92.21L525.16 92.21L525.16 93.30M531.91 93.30L527.44 93.30L527.44 92.10L531.79 92.10L531.79 91.13L528.53 91.13L528.53 90.04L527.44 90.04L527.44 88.85L528.53 88.85L528.53 87.76L533.02 87.76L533.02 88.96L528.65 88.96L528.65 89.92L531.91 89.92L531.91 91.01L533.02 91.01L533.02 92.22L531.91 92.22L531.91 93.30M538.66 93.30L535.28 93.30L535.28 92.22L534.19 92.22L534.19 88.85L535.28 88.85L535.28 87.76L538.66 87.76L538.66 88.85L539.77 88.85L539.77 92.22L538.66 92.22L538.66 93.30M535.40 88.96L535.40 92.10L538.54 92.10L538.54 88.96L535.40 88.96M542.15 93.30L540.94 93.30L540.94 85.59L542.15 85.59L542.15 93.30M547.97 93.30L544.59 93.30L544.59 92.22L543.50 92.22L543.50 87.76L544.71 87.76L544.71 92.10L547.85 92.10L547.85 87.76L549.08 87.76L549.08 92.22L547.97 92.22L547.97 93.30M555.83 93.30L552.42 93.30L552.42 92.22L551.34 92.22L551.34 88.96L550.25 88.96L550.25 87.76L551.34 87.76L551.34 85.59L552.54 85.59L552.54 87.76L555.83 87.76L555.83 88.96L552.54 88.96L552.54 92.10L555.71 92.10L555.71 91.01L556.92 91.01L556.92 92.22L555.83 92.22L555.83 93.30M559.26 93.30L558.05 93.30L558.05 87.76L559.26 87.76L559.26 93.30M559.26 86.80L558.05 86.80L558.05 85.59L559.26 85.59L559.26 86.80M565.08 93.30L561.69 93.30L561.69 92.22L560.60 92.22L560.60 88.85L561.69 88.85L561.69 87.76L565.08 87.76L565.08 88.85L566.18 88.85L566.18 92.22L565.08 92.22L565.08 93.30M561.81 88.96L561.81 92.10L564.96 92.10L564.96 88.96L561.81 88.96M568.57 93.30L567.35 93.30L567.35 87.76L571.83 87.76L571.83 88.85L572.93 88.85L572.93 93.30L571.71 93.30L571.71 88.96L568.57 88.96L568.57 93.30M579.35 90.76L575.96 90.76L575.96 89.55L579.35 89.55L579.35 90.76M587.02 93.30L583.64 93.30L583.64 92.22L582.55 92.22L582.55 88.85L583.64 88.85L583.64 87.76L587.02 87.76L587.02 88.85L588.13 88.85L588.13 90.04L586.90 90.04L586.90 88.96L583.76 88.96L583.76 89.92L585.94 89.92L585.94 91.13L583.76 91.13L583.76 92.10L586.90 92.10L586.90 91L588.13 91L588.13 92.21L587.02 92.21L587.02 93.30M590.51 93.30L589.30 93.30L589.30 92.10L590.39 92.10L590.39 91.01L591.47 91.01L591.47 90.04L590.39 90.04L590.39 88.96L589.30 88.96L589.30 87.76L590.51 87.76L590.51 88.85L591.59 88.85L591.59 89.92L592.58 89.92L592.58 88.85L593.66 88.85L593.66 87.76L594.88 87.76L594.88 88.96L593.78 88.96L593.78 90.04L592.70 90.04L592.70 91.01L593.78 91.01L593.78 92.10L594.88 92.10L594.88 93.30L593.66 93.30L593.66 92.22L592.58 92.22L592.58 91.13L591.59 91.13L591.59 92.22L590.51 92.22L590.51 93.30M600.53 93.30L597.14 93.30L597.14 92.22L596.05 92.22L596.05 88.85L597.14 88.85L597.14 87.76L600.53 87.76L600.53 88.85L601.63 88.85L601.63 90.04L600.41 90.04L600.41 88.96L597.26 88.96L597.26 92.10L600.41 92.10L600.41 91.01L601.63 91.01L601.63 92.22L600.53 92.22L600.53 93.30M604.01 93.30L602.80 93.30L602.80 85.59L604.01 85.59L604.01 93.30M609.83 93.30L606.45 93.30L606.45 92.22L605.36 92.22L605.36 87.76L606.57 87.76L606.57 92.10L609.71 92.10L609.71 87.76L610.94 87.76L610.94 92.22L609.83 92.22L609.83 93.30M616.58 93.30L612.11 93.30L612.11 92.10L616.46 92.10L616.46 91.13L613.20 91.13L613.20 90.04L612.11 90.04L612.11 88.85L613.20 88.85L613.20 87.76L617.69 87.76L617.69 88.96L613.32 88.96L613.32 89.92L616.58 89.92L616.58 91.01L617.69 91.01L617.69 92.22L616.58 92.22L616.58 93.30M620.07 93.30L618.86 93.30L618.86 87.76L620.07 87.76L620.07 93.30M620.07 86.80L618.86 86.80L618.86 85.59L620.07 85.59L620.07 86.80M625.89 93.30L622.51 93.30L622.51 92.22L621.42 92.22L621.42 88.85L622.51 88.85L622.51 87.76L625.89 87.76L625.89 88.85L627 88.85L627 92.22L625.89 92.22L625.89 93.30M622.63 88.96L622.63 92.10L625.77 92.10L625.77 88.96L622.63 88.96M629.38 93.30L628.17 93.30L628.17 87.76L632.64 87.76L632.64 88.85L633.75 88.85L633.75 93.30L632.52 93.30L632.52 88.96L629.38 88.96L629.38 93.30M639.39 93.30L634.92 93.30L634.92 92.10L639.27 92.10L639.27 91.13L636.01 91.13L636.01 90.04L634.92 90.04L634.92 88.85L636.01 88.85L636.01 87.76L640.50 87.76L640.50 88.96L636.13 88.96L636.13 89.92L639.39 89.92L639.39 91.01L640.50 91.01L640.50 92.22L639.39 92.22"/>
  <rect x="44" y="190" width="152" height="66" rx="7" fill="#06190f" stroke="#3dff88" stroke-width="2"/>
  <path fill="#3dff88" d="M104.23 220.38L102.71 220.38L102.71 210.73L104.23 210.73L104.23 212.10L105.58 212.10L105.58 213.45L106.96 213.45L106.96 217.51L108.16 217.51L108.16 210.73L109.69 210.73L109.69 220.38L108.16 220.38L108.16 219.03L106.81 219.03L106.81 217.66L105.43 217.66L105.43 213.60L104.23 213.60L104.23 220.38M116.76 223.09L112.52 223.09L112.52 221.74L111.15 221.74L111.15 220.24L112.67 220.24L112.67 221.59L116.61 221.59L116.61 219.03L112.52 219.03L112.52 217.66L111.15 217.66L111.15 213.45L112.67 213.45L112.67 217.51L116.61 217.51L116.61 213.45L118.13 213.45L118.13 221.74L116.76 221.74L116.76 223.09M125.18 220.38L120.95 220.38L120.95 219.03L119.59 219.03L119.59 214.81L120.95 214.81L120.95 213.45L125.18 213.45L125.18 214.81L126.56 214.81L126.56 218.88L127.93 218.88L127.93 220.38L126.41 220.38L126.41 219.03L125.18 219.03L125.18 220.38M121.10 214.95L121.10 218.88L125.03 218.88L125.03 214.95L121.10 214.95M134.93 220.38L130.70 220.38L130.70 219.03L129.34 219.03L129.34 214.81L130.70 214.81L130.70 213.45L134.93 213.45L134.93 214.81L136.31 214.81L136.31 218.88L137.68 218.88L137.68 220.38L136.16 220.38L136.16 219.03L134.93 219.03L134.93 220.38M130.85 214.95L130.85 218.88L134.78 218.88L134.78 214.95"/>
  <path fill="#1f8a4d" d="M104.54 239.32L103.53 239.32L103.53 234.70L107.26 234.70L107.26 235.61L108.18 235.61L108.18 239.32L107.16 239.32L107.16 235.70L104.54 235.70L104.54 239.32M112.90 241.13L110.07 241.13L110.07 240.23L109.16 240.23L109.16 239.23L110.17 239.23L110.17 240.13L112.80 240.13L112.80 238.42L110.07 238.42L110.07 237.51L109.16 237.51L109.16 234.70L110.17 234.70L110.17 237.41L112.80 237.41L112.80 234.70L113.81 234.70L113.81 240.23L112.90 240.23L112.90 241.13M118.51 239.32L115.69 239.32L115.69 238.42L114.78 238.42L114.78 235.61L115.69 235.61L115.69 234.70L118.51 234.70L118.51 235.61L119.43 235.61L119.43 238.32L120.34 238.32L120.34 239.32L119.33 239.32L119.33 238.42L118.51 238.42L118.51 239.32M115.79 235.70L115.79 238.32L118.41 238.32L118.41 235.70L115.79 235.70M125.01 239.32L122.19 239.32L122.19 238.42L121.28 238.42L121.28 235.61L122.19 235.61L122.19 234.70L125.01 234.70L125.01 235.61L125.93 235.61L125.93 238.32L126.84 238.32L126.84 239.32L125.83 239.32L125.83 238.42L125.01 238.42L125.01 239.32M122.29 235.70L122.29 238.32L124.91 238.32L124.91 235.70L122.29 235.70M128.79 239.20L127.78 239.20L127.78 238.19L128.79 238.19L128.79 239.20M133.64 239.32L129.91 239.32L129.91 238.32L133.54 238.32L133.54 237.51L130.82 237.51L130.82 236.60L129.91 236.60L129.91 235.61L130.82 235.61L130.82 234.70L134.56 234.70L134.56 235.70L130.92 235.70L130.92 236.50L133.64 236.50L133.64 237.41L134.56 237.41L134.56 238.42L133.64 238.42L133.64 239.32M136.55 239.32L135.54 239.32L135.54 234.70L136.55 234.70L136.55 239.32M136.55 233.90L135.54 233.90L135.54 232.89L136.55 232.89"/>
  <rect x="208" y="190" width="152" height="66" rx="7" fill="#06190f" stroke="#3dff88" stroke-width="2"/>
  <path fill="#3dff88" d="M245.54 220.38L244.03 220.38L244.03 213.45L245.39 213.45L245.39 212.10L246.74 212.10L246.74 210.73L248.27 210.73L248.27 212.10L249.62 212.10L249.62 213.45L251 213.45L251 220.38L249.47 220.38L249.47 217.66L245.54 217.66L245.54 220.38M245.54 213.60L245.54 216.15L249.47 216.15L249.47 213.60L248.12 213.60L248.12 212.25L246.89 212.25L246.89 213.60L245.54 213.60M253.98 220.38L252.46 220.38L252.46 213.45L258.06 213.45L258.06 214.81L259.44 214.81L259.44 220.38L257.91 220.38L257.91 214.95L253.98 214.95L253.98 220.38M262.42 220.38L260.90 220.38L260.90 213.45L262.42 213.45L262.42 220.38M262.42 212.25L260.90 212.25L260.90 210.73L262.42 210.73L262.42 212.25M265.61 220.38L264.10 220.38L264.10 213.45L268.34 213.45L268.34 214.81L269.54 214.81L269.54 213.45L272.44 213.45L272.44 214.81L273.79 214.81L273.79 220.38L272.29 220.38L272.29 214.95L269.69 214.95L269.69 220.38L268.19 220.38L268.19 214.95L265.61 214.95L265.61 220.38M280.74 220.38L276.51 220.38L276.51 219.03L275.14 219.03L275.14 214.81L276.51 214.81L276.51 213.45L280.74 213.45L280.74 214.81L282.12 214.81L282.12 216.30L280.59 216.30L280.59 214.95L276.66 214.95L276.66 216.15L279.39 216.15L279.39 217.66L276.66 217.66L276.66 218.88L280.59 218.88L280.59 217.50L282.12 217.50L282.12 219.01L280.74 219.01L280.74 220.38M287.83 220.38L286.30 220.38L286.30 212.25L285.10 212.25L285.10 213.60L283.58 213.60L283.58 212.10L284.95 212.10L284.95 210.73L289.18 210.73L289.18 212.10L290.56 212.10L290.56 213.60L289.03 213.60L289.03 212.25L287.83 212.25L287.83 220.38M297.62 220.38L293.39 220.38L293.39 219.03L292.02 219.03L292.02 214.81L293.39 214.81L293.39 213.45L297.62 213.45L297.62 214.81L299 214.81L299 219.03L297.62 219.03L297.62 220.38M293.54 214.95L293.54 218.88L297.47 218.88L297.47 214.95L293.54 214.95M306.05 220.38L300.46 220.38L300.46 218.88L305.90 218.88L305.90 217.66L301.82 217.66L301.82 216.30L300.46 216.30L300.46 214.81L301.82 214.81L301.82 213.45L307.43 213.45L307.43 214.95L301.97 214.95L301.97 216.15L306.05 216.15L306.05 217.51L307.43 217.51L307.43 219.03L306.05 219.03L306.05 220.38M310.41 220.38L308.90 220.38L308.90 210.73L310.41 210.73L310.41 214.81L311.61 214.81L311.61 213.45L314.49 213.45L314.49 214.81L315.87 214.81L315.87 220.38L314.34 220.38L314.34 214.95L311.76 214.95L311.76 216.30L310.41 216.30L310.41 220.38M322.93 220.38L318.70 220.38L318.70 219.03L317.34 219.03L317.34 214.81L318.70 214.81L318.70 213.45L322.93 213.45L322.93 214.81L324.31 214.81L324.31 219.03L322.93 219.03L322.93 220.38M318.85 214.95L318.85 218.88L322.78 218.88L322.78 214.95"/>
  <path fill="#1f8a4d" d="M235.67 239.32L234.66 239.32L234.66 233.80L235.57 233.80L235.57 232.89L238.39 232.89L238.39 233.80L239.31 233.80L239.31 234.80L238.29 234.80L238.29 233.90L235.67 233.90L235.67 235.61L237.49 235.61L237.49 236.60L235.67 236.60L235.67 239.32M244.01 239.32L241.19 239.32L241.19 238.42L240.28 238.42L240.28 235.61L241.19 235.61L241.19 234.70L244.01 234.70L244.01 235.61L244.93 235.61L244.93 236.60L243.91 236.60L243.91 235.70L241.29 235.70L241.29 236.50L243.11 236.50L243.11 237.51L241.29 237.51L241.29 238.32L243.91 238.32L243.91 237.40L244.93 237.40L244.93 238.41L244.01 238.41L244.01 239.32M249.64 239.32L246.82 239.32L246.82 238.42L245.91 238.42L245.91 235.61L246.82 235.61L246.82 234.70L249.64 234.70L249.64 235.61L250.56 235.61L250.56 236.60L249.54 236.60L249.54 235.70L246.92 235.70L246.92 236.50L248.74 236.50L248.74 237.51L246.92 237.51L246.92 238.32L249.54 238.32L249.54 237.40L250.56 237.40L250.56 238.41L249.64 238.41L249.64 239.32M255.26 239.32L252.44 239.32L252.44 238.42L251.53 238.42L251.53 235.61L252.44 235.61L252.44 234.70L255.17 234.70L255.17 232.89L256.18 232.89L256.18 238.42L255.26 238.42L255.26 239.32M252.54 235.70L252.54 238.32L255.16 238.32L255.16 235.70L252.54 235.70M258.17 239.20L257.16 239.20L257.16 238.19L258.17 238.19L258.17 239.20M263.02 239.32L260.20 239.32L260.20 238.42L259.29 238.42L259.29 235.61L260.20 235.61L260.20 234.70L263.02 234.70L263.02 235.61L263.94 235.61L263.94 238.32L264.85 238.32L264.85 239.32L263.84 239.32L263.84 238.42L263.02 238.42L263.02 239.32M260.30 235.70L260.30 238.32L262.92 238.32L262.92 235.70L260.30 235.70M266.80 239.32L265.79 239.32L265.79 234.70L269.52 234.70L269.52 235.61L270.44 235.61L270.44 239.32L269.42 239.32L269.42 235.70L266.80 235.70L266.80 239.32M272.42 239.32L271.41 239.32L271.41 234.70L272.42 234.70L272.42 239.32M272.42 233.90L271.41 233.90L271.41 232.89L272.42 232.89L272.42 233.90M274.56 239.32L273.55 239.32L273.55 234.70L276.38 234.70L276.38 235.61L277.18 235.61L277.18 234.70L279.11 234.70L279.11 235.61L280.01 235.61L280.01 239.32L279.01 239.32L279.01 235.70L277.28 235.70L277.28 239.32L276.28 239.32L276.28 235.70L274.56 235.70L274.56 239.32M284.64 239.32L281.82 239.32L281.82 238.42L280.91 238.42L280.91 235.61L281.82 235.61L281.82 234.70L284.64 234.70L284.64 235.61L285.56 235.61L285.56 236.60L284.54 236.60L284.54 235.70L281.92 235.70L281.92 236.50L283.74 236.50L283.74 237.51L281.92 237.51L281.92 238.32L284.54 238.32L284.54 237.40L285.56 237.40L285.56 238.41L284.64 238.41L284.64 239.32M291.18 239.32L288.34 239.32L288.34 238.42L287.44 238.42L287.44 235.70L286.53 235.70L286.53 234.70L287.44 234.70L287.44 232.89L288.44 232.89L288.44 234.70L291.18 234.70L291.18 235.70L288.44 235.70L288.44 238.32L291.08 238.32L291.08 237.41L292.09 237.41L292.09 238.42L291.18 238.42L291.18 239.32M296.76 239.32L293.94 239.32L293.94 238.42L293.03 238.42L293.03 235.61L293.94 235.61L293.94 234.70L296.76 234.70L296.76 235.61L297.68 235.61L297.68 238.42L296.76 238.42L296.76 239.32M294.04 235.70L294.04 238.32L296.66 238.32L296.66 235.70L294.04 235.70M302.39 239.32L298.66 239.32L298.66 238.32L302.29 238.32L302.29 237.51L299.57 237.51L299.57 236.60L298.66 236.60L298.66 235.61L299.57 235.61L299.57 234.70L303.31 234.70L303.31 235.70L299.67 235.70L299.67 236.50L302.39 236.50L302.39 237.41L303.31 237.41L303.31 238.42L302.39 238.42L302.39 239.32M305.29 239.32L304.28 239.32L304.28 232.89L305.29 232.89L305.29 235.61L306.09 235.61L306.09 234.70L308.01 234.70L308.01 235.61L308.93 235.61L308.93 239.32L307.91 239.32L307.91 235.70L306.19 235.70L306.19 236.60L305.29 236.60L305.29 239.32M313.64 239.32L310.82 239.32L310.82 238.42L309.91 238.42L309.91 235.61L310.82 235.61L310.82 234.70L313.64 234.70L313.64 235.61L314.56 235.61L314.56 238.42L313.64 238.42L313.64 239.32M310.92 235.70L310.92 238.32L313.54 238.32L313.54 235.70L310.92 235.70M316.55 239.20L315.54 239.20L315.54 238.19L316.55 238.19L316.55 239.20M321.40 239.32L318.58 239.32L318.58 238.42L317.67 238.42L317.67 235.61L318.58 235.61L318.58 234.70L321.40 234.70L321.40 235.61L322.32 235.61L322.32 238.42L321.40 238.42L321.40 239.32M318.68 235.70L318.68 238.32L321.30 238.32L321.30 235.70L318.68 235.70M324.30 239.32L323.29 239.32L323.29 235.61L324.20 235.61L324.20 234.70L327.02 234.70L327.02 235.61L327.94 235.61L327.94 236.60L326.92 236.60L326.92 235.70L324.30 235.70L324.30 239.32M332.66 241.13L329.83 241.13L329.83 240.23L328.92 240.23L328.92 239.23L329.93 239.23L329.93 240.13L332.56 240.13L332.56 238.42L329.83 238.42L329.83 237.51L328.92 237.51L328.92 235.61L329.83 235.61L329.83 234.70L332.66 234.70L332.66 235.61L333.57 235.61L333.57 240.23L332.66 240.23L332.66 241.13M329.93 235.70L329.93 237.41L332.56 237.41L332.56 235.70"/>
  <rect x="372" y="190" width="152" height="66" rx="7" fill="#06190f" stroke="#3dff88" stroke-width="2"/>
  <path fill="#3dff88" d="M428.52 220.38L424.29 220.38L424.29 219.03L422.93 219.03L422.93 217.51L424.44 217.51L424.44 218.88L428.37 218.88L428.37 216.30L424.29 216.30L424.29 214.95L422.93 214.95L422.93 212.10L424.29 212.10L424.29 210.73L428.52 210.73L428.52 212.10L429.90 212.10L429.90 213.60L428.37 213.60L428.37 212.25L424.44 212.25L424.44 214.81L428.52 214.81L428.52 216.15L429.90 216.15L429.90 219.03L428.52 219.03L428.52 220.38M436.96 220.38L432.73 220.38L432.73 219.03L431.37 219.03L431.37 214.81L432.73 214.81L432.73 213.45L436.96 213.45L436.96 214.81L438.34 214.81L438.34 216.30L436.81 216.30L436.81 214.95L432.88 214.95L432.88 216.15L435.61 216.15L435.61 217.66L432.88 217.66L432.88 218.88L436.81 218.88L436.81 217.50L438.34 217.50L438.34 219.01L436.96 219.01L436.96 220.38M445.40 220.38L441.17 220.38L441.17 219.03L439.81 219.03L439.81 214.81L441.17 214.81L441.17 213.45L445.40 213.45L445.40 214.81L446.78 214.81L446.78 218.88L448.15 218.88L448.15 220.38L446.63 220.38L446.63 219.03L445.40 219.03L445.40 220.38M441.32 214.95L441.32 218.88L445.25 218.88L445.25 214.95L441.32 214.95M455.15 220.38L450.92 220.38L450.92 219.03L449.56 219.03L449.56 214.81L450.92 214.81L450.92 213.45L455.02 213.45L455.02 210.73L456.53 210.73L456.53 219.03L455.15 219.03L455.15 220.38M451.07 214.95L451.07 218.88L455 218.88L455 214.95L451.07 214.95M463.59 220.38L459.36 220.38L459.36 219.03L457.99 219.03L457.99 214.81L459.36 214.81L459.36 213.45L463.59 213.45L463.59 214.81L464.97 214.81L464.97 216.30L463.44 216.30L463.44 214.95L459.51 214.95L459.51 216.15L462.24 216.15L462.24 217.66L459.51 217.66L459.51 218.88L463.44 218.88L463.44 217.50L464.97 217.50L464.97 219.01L463.59 219.01L463.59 220.38M467.95 220.38L466.43 220.38L466.43 218.88L467.80 218.88L467.80 217.51L469.15 217.51L469.15 216.30L467.80 216.30L467.80 214.95L466.43 214.95L466.43 213.45L467.95 213.45L467.95 214.81L469.30 214.81L469.30 216.15L470.53 216.15L470.53 214.81L471.88 214.81L471.88 213.45L473.41 213.45L473.41 214.95L472.03 214.95L472.03 216.30L470.68 216.30L470.68 217.51L472.03 217.51L472.03 218.88L473.41 218.88L473.41 220.38L471.88 220.38L471.88 219.03L470.53 219.03L470.53 217.66L469.30 217.66L469.30 219.03L467.95 219.03"/>
  <path fill="#1f8a4d" d="M418.05 239.32L417.04 239.32L417.04 235.61L417.95 235.61L417.95 234.70L420.77 234.70L420.77 235.61L421.69 235.61L421.69 236.60L420.67 236.60L420.67 235.70L418.05 235.70L418.05 239.32M426.39 239.32L423.57 239.32L423.57 238.42L422.66 238.42L422.66 235.61L423.57 235.61L423.57 234.70L426.39 234.70L426.39 235.61L427.31 235.61L427.31 236.60L426.29 236.60L426.29 235.70L423.67 235.70L423.67 236.50L425.49 236.50L425.49 237.51L423.67 237.51L423.67 238.32L426.29 238.32L426.29 237.40L427.31 237.40L427.31 238.41L426.39 238.41L426.39 239.32M429.30 239.32L428.29 239.32L428.29 232.89L429.30 232.89L429.30 239.32M434.15 239.32L431.33 239.32L431.33 238.42L430.42 238.42L430.42 235.61L431.33 235.61L431.33 234.70L434.15 234.70L434.15 235.61L435.07 235.61L435.07 236.60L434.05 236.60L434.05 235.70L431.43 235.70L431.43 236.50L433.25 236.50L433.25 237.51L431.43 237.51L431.43 238.32L434.05 238.32L434.05 237.40L435.07 237.40L435.07 238.41L434.15 238.41L434.15 239.32M439.77 239.32L436.95 239.32L436.95 238.42L436.04 238.42L436.04 235.61L436.95 235.61L436.95 234.70L439.77 234.70L439.77 235.61L440.69 235.61L440.69 238.32L441.60 238.32L441.60 239.32L440.59 239.32L440.59 238.42L439.77 238.42L439.77 239.32M437.05 235.70L437.05 238.32L439.67 238.32L439.67 235.70L437.05 235.70M446.27 239.32L442.54 239.32L442.54 238.32L446.17 238.32L446.17 237.51L443.45 237.51L443.45 236.60L442.54 236.60L442.54 235.61L443.45 235.61L443.45 234.70L447.19 234.70L447.19 235.70L443.55 235.70L443.55 236.50L446.27 236.50L446.27 237.41L447.19 237.41L447.19 238.42L446.27 238.42L446.27 239.32M451.90 239.32L449.08 239.32L449.08 238.42L448.17 238.42L448.17 235.61L449.08 235.61L449.08 234.70L451.90 234.70L451.90 235.61L452.82 235.61L452.82 236.60L451.80 236.60L451.80 235.70L449.18 235.70L449.18 236.50L451 236.50L451 237.51L449.18 237.51L449.18 238.32L451.80 238.32L451.80 237.40L452.82 237.40L452.82 238.41L451.90 238.41L451.90 239.32M457.52 239.32L453.79 239.32L453.79 238.32L457.42 238.32L457.42 237.51L454.70 237.51L454.70 236.60L453.79 236.60L453.79 235.61L454.70 235.61L454.70 234.70L458.44 234.70L458.44 235.70L454.80 235.70L454.80 236.50L457.52 236.50L457.52 237.41L458.44 237.41L458.44 238.42L457.52 238.42L457.52 239.32M460.43 239.20L459.42 239.20L459.42 238.19L460.43 238.19L460.43 239.20M462.56 239.32L461.55 239.32L461.55 234.70L464.38 234.70L464.38 235.61L465.18 235.61L465.18 234.70L467.11 234.70L467.11 235.61L468.01 235.61L468.01 239.32L467.01 239.32L467.01 235.70L465.28 235.70L465.28 239.32L464.28 239.32L464.28 235.70L462.56 235.70L462.56 239.32M472.64 239.32L469.82 239.32L469.82 238.42L468.91 238.42L468.91 235.61L469.82 235.61L469.82 234.70L472.64 234.70L472.64 235.61L473.56 235.61L473.56 238.42L472.64 238.42L472.64 239.32M469.92 235.70L469.92 238.32L472.54 238.32L472.54 235.70L469.92 235.70M478.27 239.32L475.45 239.32L475.45 238.42L474.54 238.42L474.54 235.61L475.45 235.61L475.45 234.70L478.27 234.70L478.27 235.61L479.19 235.61L479.19 236.60L478.17 236.60L478.17 235.70L475.55 235.70L475.55 236.50L477.37 236.50L477.37 237.51L475.55 237.51L475.55 238.32L478.17 238.32L478.17 237.40L479.19 237.40L479.19 238.41L478.27 238.41"/>
  <rect x="536" y="190" width="152" height="66" rx="7" fill="#06190f" stroke="#3dff88" stroke-width="2"/>
  <path fill="#3dff88" d="M578.27 220.38L574.04 220.38L574.04 219.03L572.67 219.03L572.67 217.51L574.19 217.51L574.19 218.88L578.12 218.88L578.12 216.30L574.04 216.30L574.04 214.95L572.67 214.95L572.67 212.10L574.04 212.10L574.04 210.73L578.27 210.73L578.27 212.10L579.65 212.10L579.65 213.60L578.12 213.60L578.12 212.25L574.19 212.25L574.19 214.81L578.27 214.81L578.27 216.15L579.65 216.15L579.65 219.03L578.27 219.03L578.27 220.38M586.71 220.38L582.48 220.38L582.48 219.03L581.11 219.03L581.11 213.45L582.63 213.45L582.63 218.88L586.56 218.88L586.56 213.45L588.09 213.45L588.09 219.03L586.71 219.03L586.71 220.38M595.15 220.38L590.92 220.38L590.92 219.03L589.55 219.03L589.55 210.73L591.07 210.73L591.07 213.45L595.15 213.45L595.15 214.81L596.53 214.81L596.53 219.03L595.15 219.03L595.15 220.38M591.07 214.95L591.07 218.88L595 218.88L595 214.95L591.07 214.95M603.58 220.38L597.99 220.38L597.99 218.88L603.43 218.88L603.43 217.66L599.35 217.66L599.35 216.30L597.99 216.30L597.99 214.81L599.35 214.81L599.35 213.45L604.96 213.45L604.96 214.95L599.50 214.95L599.50 216.15L603.58 216.15L603.58 217.51L604.96 217.51L604.96 219.03L603.58 219.03L603.58 220.38M607.94 220.38L606.43 220.38L606.43 212.10L607.79 212.10L607.79 210.73L612.02 210.73L612.02 212.10L613.40 212.10L613.40 216.30L612.02 216.30L612.02 217.66L607.94 217.66L607.94 220.38M607.94 212.25L607.94 216.15L611.87 216.15L611.87 212.25L607.94 212.25M616.38 220.38L614.87 220.38L614.87 210.73L616.38 210.73L616.38 220.38M623.66 220.38L619.43 220.38L619.43 219.03L618.06 219.03L618.06 214.81L619.43 214.81L619.43 213.45L623.66 213.45L623.66 214.81L625.04 214.81L625.04 216.30L623.51 216.30L623.51 214.95L619.58 214.95L619.58 216.15L622.31 216.15L622.31 217.66L619.58 217.66L619.58 218.88L623.51 218.88L623.51 217.50L625.04 217.50L625.04 219.01L623.66 219.01L623.66 220.38M632.10 220.38L627.87 220.38L627.87 219.03L626.50 219.03L626.50 214.81L627.87 214.81L627.87 213.45L632.10 213.45L632.10 214.81L633.48 214.81L633.48 218.88L634.84 218.88L634.84 220.38L633.33 220.38L633.33 219.03L632.10 219.03L632.10 220.38M628.02 214.95L628.02 218.88L631.95 218.88L631.95 214.95L628.02 214.95M641.84 220.38L636.25 220.38L636.25 218.88L641.69 218.88L641.69 217.66L637.61 217.66L637.61 216.30L636.25 216.30L636.25 214.81L637.61 214.81L637.61 213.45L643.22 213.45L643.22 214.95L637.76 214.95L637.76 216.15L641.84 216.15L641.84 217.51L643.22 217.51L643.22 219.03L641.84 219.03L641.84 220.38M650.28 220.38L646.05 220.38L646.05 219.03L644.69 219.03L644.69 214.81L646.05 214.81L646.05 213.45L650.28 213.45L650.28 214.81L651.66 214.81L651.66 216.30L650.13 216.30L650.13 214.95L646.20 214.95L646.20 216.15L648.93 216.15L648.93 217.66L646.20 217.66L646.20 218.88L650.13 218.88L650.13 217.50L651.66 217.50L651.66 219.01L650.28 219.01"/>
  <path fill="#1f8a4d" d="M580.01 239.32L576.28 239.32L576.28 238.32L579.91 238.32L579.91 237.51L577.19 237.51L577.19 236.60L576.28 236.60L576.28 235.61L577.19 235.61L577.19 234.70L580.93 234.70L580.93 235.70L577.29 235.70L577.29 236.50L580.01 236.50L580.01 237.41L580.93 237.41L580.93 238.42L580.01 238.42L580.01 239.32M585.63 239.32L582.81 239.32L582.81 238.42L581.90 238.42L581.90 234.70L582.91 234.70L582.91 238.32L585.53 238.32L585.53 234.70L586.55 234.70L586.55 238.42L585.63 238.42L585.63 239.32M591.26 239.32L588.44 239.32L588.44 238.42L587.53 238.42L587.53 232.89L588.54 232.89L588.54 234.70L591.26 234.70L591.26 235.61L592.18 235.61L592.18 238.42L591.26 238.42L591.26 239.32M588.54 235.70L588.54 238.32L591.16 238.32L591.16 235.70L588.54 235.70M596.89 239.32L593.16 239.32L593.16 238.32L596.79 238.32L596.79 237.51L594.07 237.51L594.07 236.60L593.16 236.60L593.16 235.61L594.07 235.61L594.07 234.70L597.81 234.70L597.81 235.70L594.17 235.70L594.17 236.50L596.89 236.50L596.89 237.41L597.81 237.41L597.81 238.42L596.89 238.42L596.89 239.32M599.79 241.08L598.78 241.08L598.78 235.61L599.69 235.61L599.69 234.70L602.51 234.70L602.51 235.61L603.43 235.61L603.43 238.42L602.51 238.42L602.51 239.32L599.79 239.32L599.79 241.08M599.79 235.70L599.79 238.32L602.41 238.32L602.41 235.70L599.79 235.70M605.42 239.32L604.41 239.32L604.41 232.89L605.42 232.89L605.42 239.32M610.27 239.32L607.45 239.32L607.45 238.42L606.54 238.42L606.54 235.61L607.45 235.61L607.45 234.70L610.27 234.70L610.27 235.61L611.19 235.61L611.19 236.60L610.17 236.60L610.17 235.70L607.55 235.70L607.55 236.50L609.37 236.50L609.37 237.51L607.55 237.51L607.55 238.32L610.17 238.32L610.17 237.40L611.19 237.40L611.19 238.41L610.27 238.41L610.27 239.32M615.89 239.32L613.07 239.32L613.07 238.42L612.16 238.42L612.16 235.61L613.07 235.61L613.07 234.70L615.89 234.70L615.89 235.61L616.81 235.61L616.81 238.32L617.72 238.32L617.72 239.32L616.71 239.32L616.71 238.42L615.89 238.42L615.89 239.32M613.17 235.70L613.17 238.32L615.79 238.32L615.79 235.70L613.17 235.70M622.39 239.32L618.66 239.32L618.66 238.32L622.29 238.32L622.29 237.51L619.57 237.51L619.57 236.60L618.66 236.60L618.66 235.61L619.57 235.61L619.57 234.70L623.31 234.70L623.31 235.70L619.67 235.70L619.67 236.50L622.39 236.50L622.39 237.41L623.31 237.41L623.31 238.42L622.39 238.42L622.39 239.32M628.02 239.32L625.20 239.32L625.20 238.42L624.29 238.42L624.29 235.61L625.20 235.61L625.20 234.70L628.02 234.70L628.02 235.61L628.94 235.61L628.94 236.60L627.92 236.60L627.92 235.70L625.30 235.70L625.30 236.50L627.12 236.50L627.12 237.51L625.30 237.51L625.30 238.32L627.92 238.32L627.92 237.40L628.94 237.40L628.94 238.41L628.02 238.41L628.02 239.32M630.92 239.20L629.91 239.20L629.91 238.19L630.92 238.19L630.92 239.20M635.77 239.32L632.95 239.32L632.95 238.42L632.04 238.42L632.04 235.61L632.95 235.61L632.95 234.70L635.77 234.70L635.77 235.61L636.69 235.61L636.69 238.42L635.77 238.42L635.77 239.32M633.05 235.70L633.05 238.32L635.67 238.32L635.67 235.70L633.05 235.70M638.68 239.32L637.67 239.32L637.67 235.61L638.58 235.61L638.58 234.70L641.40 234.70L641.40 235.61L642.32 235.61L642.32 236.60L641.30 236.60L641.30 235.70L638.68 235.70L638.68 239.32M647.04 241.13L644.21 241.13L644.21 240.23L643.30 240.23L643.30 239.23L644.31 239.23L644.31 240.13L646.94 240.13L646.94 238.42L644.21 238.42L644.21 237.51L643.30 237.51L643.30 235.61L644.21 235.61L644.21 234.70L647.04 234.70L647.04 235.61L647.95 235.61L647.95 240.23L647.04 240.23L647.04 241.13M644.31 235.70L644.31 237.41L646.94 237.41L646.94 235.70"/>
  <rect x="700" y="190" width="152" height="66" rx="7" fill="#06190f" stroke="#3dff88" stroke-width="2"/>
  <path fill="#3dff88" d="M759.11 220.38L757.58 220.38L757.58 214.95L756.23 214.95L756.23 213.60L754.87 213.60L754.87 210.73L756.38 210.73L756.38 213.45L757.73 213.45L757.73 214.81L758.96 214.81L758.96 213.45L760.31 213.45L760.31 210.73L761.84 210.73L761.84 213.60L760.46 213.60L760.46 214.95L759.11 214.95L759.11 220.38M768.90 220.38L764.67 220.38L764.67 219.03L763.31 219.03L763.31 214.81L764.67 214.81L764.67 213.45L768.90 213.45L768.90 214.81L770.28 214.81L770.28 218.88L771.65 218.88L771.65 220.38L770.13 220.38L770.13 219.03L768.90 219.03L768.90 220.38M764.82 214.95L764.82 218.88L768.75 218.88L768.75 214.95L764.82 214.95M774.57 220.38L773.06 220.38L773.06 213.45L777.30 213.45L777.30 214.81L778.50 214.81L778.50 213.45L781.40 213.45L781.40 214.81L782.75 214.81L782.75 220.38L781.25 220.38L781.25 214.95L778.65 214.95L778.65 220.38L777.15 220.38L777.15 214.95L774.57 214.95L774.57 220.38M789.69 220.38L785.46 220.38L785.46 219.03L784.10 219.03L784.10 214.81L785.46 214.81L785.46 213.45L789.69 213.45L789.69 214.81L791.07 214.81L791.07 216.30L789.54 216.30L789.54 214.95L785.61 214.95L785.61 216.15L788.34 216.15L788.34 217.66L785.61 217.66L785.61 218.88L789.54 218.88L789.54 217.50L791.07 217.50L791.07 219.01L789.69 219.01L789.69 220.38M794.05 220.38L792.54 220.38L792.54 213.45L794.05 213.45L794.05 220.38M794.05 212.25L792.54 212.25L792.54 210.73L794.05 210.73L794.05 212.25M797.25 220.38L795.74 220.38L795.74 213.45L797.25 213.45L797.25 220.38M797.25 212.25L795.74 212.25L795.74 210.73L797.25 210.73"/>
  <path fill="#1f8a4d" d="M760.54 239.32L759.53 239.32L759.53 234.70L763.26 234.70L763.26 235.61L764.18 235.61L764.18 239.32L763.16 239.32L763.16 235.70L760.54 235.70L760.54 239.32M768.90 241.13L766.07 241.13L766.07 240.23L765.16 240.23L765.16 239.23L766.17 239.23L766.17 240.13L768.80 240.13L768.80 238.42L766.07 238.42L766.07 237.51L765.16 237.51L765.16 234.70L766.17 234.70L766.17 237.41L768.80 237.41L768.80 234.70L769.81 234.70L769.81 240.23L768.90 240.23L768.90 241.13M774.51 239.32L771.69 239.32L771.69 238.42L770.78 238.42L770.78 235.61L771.69 235.61L771.69 234.70L774.51 234.70L774.51 235.61L775.43 235.61L775.43 238.32L776.34 238.32L776.34 239.32L775.33 239.32L775.33 238.42L774.51 238.42L774.51 239.32M771.79 235.70L771.79 238.32L774.41 238.32L774.41 235.70L771.79 235.70M781.01 239.32L778.19 239.32L778.19 238.42L777.28 238.42L777.28 235.61L778.19 235.61L778.19 234.70L781.01 234.70L781.01 235.61L781.93 235.61L781.93 238.32L782.84 238.32L782.84 239.32L781.83 239.32L781.83 238.42L781.01 238.42L781.01 239.32M778.29 235.70L778.29 238.32L780.91 238.32L780.91 235.70L778.29 235.70M784.79 239.20L783.78 239.20L783.78 238.19L784.79 238.19L784.79 239.20M789.64 239.32L785.91 239.32L785.91 238.32L789.54 238.32L789.54 237.51L786.82 237.51L786.82 236.60L785.91 236.60L785.91 235.61L786.82 235.61L786.82 234.70L790.56 234.70L790.56 235.70L786.92 235.70L786.92 236.50L789.64 236.50L789.64 237.41L790.56 237.41L790.56 238.42L789.64 238.42L789.64 239.32M792.55 239.32L791.54 239.32L791.54 234.70L792.55 234.70L792.55 239.32M792.55 233.90L791.54 233.90L791.54 232.89L792.55 232.89"/>
  <rect x="864" y="190" width="152" height="66" rx="7" fill="#06190f" stroke="#3dff88" stroke-width="2"/>
  <path fill="#3dff88" d="M911.39 220.38L909.86 220.38L909.86 212.25L908.66 212.25L908.66 213.60L907.15 213.60L907.15 212.10L908.51 212.10L908.51 210.73L912.74 210.73L912.74 212.10L914.12 212.10L914.12 213.60L912.59 213.60L912.59 212.25L911.39 212.25L911.39 220.38M921.18 220.38L916.95 220.38L916.95 219.03L915.58 219.03L915.58 214.81L916.95 214.81L916.95 213.45L921.18 213.45L921.18 214.81L922.56 214.81L922.56 219.03L921.18 219.03L921.18 220.38M917.10 214.95L917.10 218.88L921.03 218.88L921.03 214.95L917.10 214.95M929.62 220.38L925.39 220.38L925.39 219.03L924.02 219.03L924.02 214.81L925.39 214.81L925.39 213.45L929.62 213.45L929.62 214.81L931 214.81L931 219.03L929.62 219.03L929.62 220.38M925.54 214.95L925.54 218.88L929.47 218.88L929.47 214.95L925.54 214.95M933.98 220.38L932.46 220.38L932.46 213.45L938.06 213.45L938.06 214.81L939.44 214.81L939.44 220.38L937.91 220.38L937.91 214.95L933.98 214.95L933.98 220.38M946.50 220.38L940.90 220.38L940.90 218.88L946.35 218.88L946.35 217.66L942.26 217.66L942.26 216.30L940.90 216.30L940.90 214.81L942.26 214.81L942.26 213.45L947.88 213.45L947.88 214.95L942.41 214.95L942.41 216.15L946.50 216.15L946.50 217.51L947.88 217.51L947.88 219.03L946.50 219.03L946.50 220.38M950.85 220.38L949.34 220.38L949.34 210.73L950.85 210.73L950.85 214.81L952.05 214.81L952.05 213.45L953.58 213.45L953.58 214.81L954.78 214.81L954.78 210.73L956.31 210.73L956.31 220.38L954.78 220.38L954.78 216.30L950.85 216.30L950.85 220.38M963.37 220.38L959.14 220.38L959.14 219.03L957.78 219.03L957.78 213.45L959.29 213.45L959.29 218.88L963.22 218.88L963.22 213.45L964.75 213.45L964.75 219.03L963.37 219.03L963.37 220.38M971.81 220.38L967.58 220.38L967.58 219.03L966.22 219.03L966.22 210.73L967.73 210.73L967.73 213.45L971.81 213.45L971.81 214.81L973.19 214.81L973.19 219.03L971.81 219.03L971.81 220.38M967.73 214.95L967.73 218.88L971.66 218.88L971.66 214.95"/>
  <path fill="#1f8a4d" d="M924.54 239.32L923.53 239.32L923.53 234.70L927.26 234.70L927.26 235.61L928.18 235.61L928.18 239.32L927.16 239.32L927.16 235.70L924.54 235.70L924.54 239.32M932.90 241.13L930.07 241.13L930.07 240.23L929.16 240.23L929.16 239.23L930.17 239.23L930.17 240.13L932.80 240.13L932.80 238.42L930.07 238.42L930.07 237.51L929.16 237.51L929.16 234.70L930.17 234.70L930.17 237.41L932.80 237.41L932.80 234.70L933.81 234.70L933.81 240.23L932.90 240.23L932.90 241.13M938.51 239.32L935.69 239.32L935.69 238.42L934.78 238.42L934.78 235.61L935.69 235.61L935.69 234.70L938.51 234.70L938.51 235.61L939.43 235.61L939.43 238.32L940.34 238.32L940.34 239.32L939.33 239.32L939.33 238.42L938.51 238.42L938.51 239.32M935.79 235.70L935.79 238.32L938.41 238.32L938.41 235.70L935.79 235.70M945.01 239.32L942.19 239.32L942.19 238.42L941.28 238.42L941.28 235.61L942.19 235.61L942.19 234.70L945.01 234.70L945.01 235.61L945.93 235.61L945.93 238.32L946.84 238.32L946.84 239.32L945.83 239.32L945.83 238.42L945.01 238.42L945.01 239.32M942.29 235.70L942.29 238.32L944.91 238.32L944.91 235.70L942.29 235.70M948.79 239.20L947.78 239.20L947.78 238.19L948.79 238.19L948.79 239.20M953.64 239.32L949.91 239.32L949.91 238.32L953.54 238.32L953.54 237.51L950.82 237.51L950.82 236.60L949.91 236.60L949.91 235.61L950.82 235.61L950.82 234.70L954.56 234.70L954.56 235.70L950.92 235.70L950.92 236.50L953.64 236.50L953.64 237.41L954.56 237.41L954.56 238.42L953.64 238.42L953.64 239.32M956.55 239.32L955.54 239.32L955.54 234.70L956.55 234.70L956.55 239.32M956.55 233.90L955.54 233.90L955.54 232.89L956.55 232.89"/>
  <rect x="179" y="120" width="210" height="34" rx="7" fill="#06190f" stroke="#1f8a4d" stroke-width="1.5" stroke-dasharray="4 3"/>
  <path fill="#1f8a4d" d="M230.14 140.50L226.75 140.50L226.75 139.42L225.66 139.42L225.66 136.05L226.75 136.05L226.75 134.96L230.14 134.96L230.14 136.05L231.24 136.05L231.24 139.30L232.33 139.30L232.33 140.50L231.12 140.50L231.12 139.42L230.14 139.42L230.14 140.50M226.87 136.16L226.87 139.30L230.02 139.30L230.02 136.16L226.87 136.16M234.67 140.50L233.46 140.50L233.46 134.96L237.94 134.96L237.94 136.05L239.04 136.05L239.04 140.50L237.82 140.50L237.82 136.16L234.67 136.16L234.67 140.50M241.42 140.50L240.21 140.50L240.21 134.96L241.42 134.96L241.42 140.50M241.42 134L240.21 134L240.21 132.79L241.42 132.79L241.42 134M243.98 140.50L242.77 140.50L242.77 132.79L243.98 132.79L243.98 140.50M246.54 140.50L245.33 140.50L245.33 134.96L246.54 134.96L246.54 140.50M246.54 134L245.33 134L245.33 132.79L246.54 132.79L246.54 134M252.36 140.50L247.88 140.50L247.88 139.30L252.24 139.30L252.24 138.33L248.98 138.33L248.98 137.24L247.88 137.24L247.88 136.05L248.98 136.05L248.98 134.96L253.46 134.96L253.46 136.16L249.10 136.16L249.10 137.12L252.36 137.12L252.36 138.21L253.46 138.21L253.46 139.42L252.36 139.42L252.36 140.50M260.22 140.50L256.81 140.50L256.81 139.42L255.73 139.42L255.73 136.16L254.64 136.16L254.64 134.96L255.73 134.96L255.73 132.79L256.93 132.79L256.93 134.96L260.22 134.96L260.22 136.16L256.93 136.16L256.93 139.30L260.10 139.30L260.10 138.21L261.31 138.21L261.31 139.42L260.22 139.42L260.22 140.50M265.37 137.96L261.99 137.96L261.99 136.75L265.37 136.75L265.37 137.96M271.85 140.50L268.44 140.50L268.44 139.42L267.36 139.42L267.36 136.16L266.27 136.16L266.27 134.96L267.36 134.96L267.36 132.79L268.56 132.79L268.56 134.96L271.85 134.96L271.85 136.16L268.56 136.16L268.56 139.30L271.73 139.30L271.73 138.21L272.94 138.21L272.94 139.42L271.85 139.42L271.85 140.50M278.55 140.50L275.16 140.50L275.16 139.42L274.07 139.42L274.07 136.05L275.16 136.05L275.16 134.96L278.55 134.96L278.55 136.05L279.65 136.05L279.65 139.42L278.55 139.42L278.55 140.50M275.28 136.16L275.28 139.30L278.43 139.30L278.43 136.16L275.28 136.16M283.76 137.96L280.38 137.96L280.38 136.75L283.76 136.75L283.76 137.96M289.13 140.50L285.75 140.50L285.75 139.42L284.66 139.42L284.66 136.05L285.75 136.05L285.75 134.96L289.13 134.96L289.13 136.05L290.24 136.05L290.24 139.30L291.33 139.30L291.33 140.50L290.12 140.50L290.12 139.42L289.13 139.42L289.13 140.50M285.87 136.16L285.87 139.30L289.01 139.30L289.01 136.16L285.87 136.16M293.67 140.50L292.46 140.50L292.46 134.96L296.93 134.96L296.93 136.05L298.04 136.05L298.04 140.50L296.81 140.50L296.81 136.16L293.67 136.16L293.67 140.50M300.42 140.50L299.21 140.50L299.21 134.96L300.42 134.96L300.42 140.50M300.42 134L299.21 134L299.21 132.79L300.42 132.79L300.42 134M306.24 140.50L302.86 140.50L302.86 139.42L301.76 139.42L301.76 136.05L302.86 136.05L302.86 134.96L306.13 134.96L306.13 132.79L307.34 132.79L307.34 139.42L306.24 139.42L306.24 140.50M302.98 136.16L302.98 139.30L306.12 139.30L306.12 136.16L302.98 136.16M312.99 140.50L309.61 140.50L309.61 139.42L308.51 139.42L308.51 132.79L309.73 132.79L309.73 134.96L312.99 134.96L312.99 136.05L314.09 136.05L314.09 139.42L312.99 139.42L312.99 140.50M309.73 136.16L309.73 139.30L312.87 139.30L312.87 136.16L309.73 136.16M316.48 140.36L315.27 140.36L315.27 139.15L316.48 139.15L316.48 140.36M321.22 140.52L318.91 140.52L318.91 139.42L317.82 139.42L317.82 138.21L319.03 138.21L319.03 139.30L321.10 139.30L321.10 134.96L322.31 134.96L322.31 139.42L321.22 139.42L321.22 140.52M328 140.50L323.53 140.50L323.53 139.30L327.88 139.30L327.88 138.33L324.62 138.33L324.62 137.24L323.53 137.24L323.53 136.05L324.62 136.05L324.62 134.96L329.11 134.96L329.11 136.16L324.74 136.16L324.74 137.12L328 137.12L328 138.21L329.11 138.21L329.11 139.42L328 139.42L328 140.50M334.75 140.50L331.37 140.50L331.37 139.42L330.28 139.42L330.28 136.05L331.37 136.05L331.37 134.96L334.75 134.96L334.75 136.05L335.86 136.05L335.86 139.42L334.75 139.42L334.75 140.50M331.49 136.16L331.49 139.30L334.63 139.30L334.63 136.16L331.49 136.16M338.24 140.50L337.03 140.50L337.03 134.96L341.50 134.96L341.50 136.05L342.61 136.05L342.61 140.50L341.38 140.50L341.38 136.16L338.24 136.16"/>
  <rect x="240" y="322" width="580" height="52" rx="7" fill="#06190f" stroke="#3dff88" stroke-width="2"/>
  <path fill="#3dff88" d="M412.70 345.17L406.74 345.17L406.74 343.57L412.54 343.57L412.54 342.28L408.19 342.28L408.19 340.82L406.74 340.82L406.74 339.24L408.19 339.24L408.19 337.78L414.18 337.78L414.18 339.38L408.35 339.38L408.35 340.66L412.70 340.66L412.70 342.12L414.18 342.12L414.18 343.73L412.70 343.73L412.70 345.17M417.35 345.17L415.74 345.17L415.74 334.88L417.35 334.88L417.35 339.24L418.63 339.24L418.63 337.78L421.70 337.78L421.70 339.24L423.18 339.24L423.18 345.17L421.54 345.17L421.54 339.38L418.79 339.38L418.79 340.82L417.35 340.82L417.35 345.17M430.71 345.17L426.19 345.17L426.19 343.73L424.74 343.73L424.74 339.24L426.19 339.24L426.19 337.78L430.71 337.78L430.71 339.24L432.18 339.24L432.18 343.57L433.63 343.57L433.63 345.17L432.02 345.17L432.02 343.73L430.71 343.73L430.71 345.17M426.35 339.38L426.35 343.57L430.55 343.57L430.55 339.38L426.35 339.38M436.75 345.17L435.14 345.17L435.14 339.24L436.59 339.24L436.59 337.78L441.10 337.78L441.10 339.24L442.58 339.24L442.58 340.82L440.94 340.82L440.94 339.38L436.75 339.38L436.75 345.17M450.11 345.17L445.59 345.17L445.59 343.73L444.14 343.73L444.14 339.24L445.59 339.24L445.59 337.78L450.11 337.78L450.11 339.24L451.58 339.24L451.58 340.82L449.95 340.82L449.95 339.38L445.75 339.38L445.75 340.66L448.67 340.66L448.67 342.28L445.75 342.28L445.75 343.57L449.95 343.57L449.95 342.10L451.58 342.10L451.58 343.72L450.11 343.72L450.11 345.17M459.11 345.17L454.59 345.17L454.59 343.73L453.14 343.73L453.14 339.24L454.59 339.24L454.59 337.78L458.96 337.78L458.96 334.88L460.58 334.88L460.58 343.73L459.11 343.73L459.11 345.17M454.75 339.38L454.75 343.57L458.95 343.57L458.95 339.38L454.75 339.38M466.83 345.17L465.21 345.17L465.21 336.34L466.67 336.34L466.67 334.88L471.18 334.88L471.18 336.34L472.65 336.34L472.65 337.94L471.02 337.94L471.02 336.50L466.83 336.50L466.83 339.24L469.74 339.24L469.74 340.82L466.83 340.82L466.83 345.17M475.83 345.17L474.21 345.17L474.21 337.78L475.83 337.78L475.83 345.17M475.83 336.50L474.21 336.50L474.21 334.88L475.83 334.88L475.83 336.50M479.24 345.17L477.62 345.17L477.62 334.88L479.24 334.88L479.24 345.17M488.47 345.17L483.93 345.17L483.93 343.73L482.49 343.73L482.49 339.38L481.03 339.38L481.03 337.78L482.49 337.78L482.49 334.88L484.09 334.88L484.09 337.78L488.47 337.78L488.47 339.38L484.09 339.38L484.09 343.57L488.31 343.57L488.31 342.12L489.93 342.12L489.93 343.73L488.47 343.73L488.47 345.17M497.40 345.17L492.89 345.17L492.89 343.73L491.43 343.73L491.43 339.24L492.89 339.24L492.89 337.78L497.40 337.78L497.40 339.24L498.87 339.24L498.87 340.82L497.24 340.82L497.24 339.38L493.05 339.38L493.05 340.66L495.96 340.66L495.96 342.28L493.05 342.28L493.05 343.57L497.24 343.57L497.24 342.10L498.87 342.10L498.87 343.72L497.40 343.72L497.40 345.17M502.05 345.17L500.43 345.17L500.43 339.24L501.89 339.24L501.89 337.78L506.40 337.78L506.40 339.24L507.87 339.24L507.87 340.82L506.24 340.82L506.24 339.38L502.05 339.38L502.05 345.17M516.42 341.78L511.91 341.78L511.91 340.16L516.42 340.16L516.42 341.78M526.66 345.17L520.69 345.17L520.69 343.57L526.50 343.57L526.50 342.28L522.15 342.28L522.15 340.82L520.69 340.82L520.69 339.24L522.15 339.24L522.15 337.78L528.13 337.78L528.13 339.38L522.31 339.38L522.31 340.66L526.66 340.66L526.66 342.12L528.13 342.12L528.13 343.73L526.66 343.73L526.66 345.17M531.31 345.17L529.69 345.17L529.69 339.24L531.15 339.24L531.15 337.78L535.66 337.78L535.66 339.24L537.13 339.24L537.13 340.82L535.50 340.82L535.50 339.38L531.31 339.38L531.31 345.17M544.66 345.17L540.15 345.17L540.15 343.73L538.69 343.73L538.69 339.24L540.15 339.24L540.15 337.78L544.66 337.78L544.66 339.24L546.13 339.24L546.13 340.82L544.50 340.82L544.50 339.38L540.31 339.38L540.31 343.57L544.50 343.57L544.50 342.12L546.13 342.12L546.13 343.73L544.66 343.73L544.66 345.17M549.12 345.17L547.69 345.17L552.78 334.88L554.21 334.88L549.12 345.17M557.44 345.17L555.82 345.17L555.82 334.88L557.44 334.88L557.44 345.17M560.85 345.17L559.23 345.17L559.23 337.78L560.85 337.78L560.85 345.17M560.85 336.50L559.23 336.50L559.23 334.88L560.85 334.88L560.85 336.50M568.61 345.17L564.10 345.17L564.10 343.73L562.64 343.73L562.64 334.88L564.26 334.88L564.26 337.78L568.61 337.78L568.61 339.24L570.08 339.24L570.08 343.73L568.61 343.73L568.61 345.17M564.26 339.38L564.26 343.57L568.45 343.57L568.45 339.38L564.26 339.38M573.06 345.17L571.64 345.17L576.73 334.88L578.15 334.88L573.06 345.17M585.73 345.17L579.77 345.17L579.77 343.57L585.57 343.57L585.57 342.28L581.22 342.28L581.22 340.82L579.77 340.82L579.77 339.24L581.22 339.24L581.22 337.78L587.21 337.78L587.21 339.38L581.38 339.38L581.38 340.66L585.73 340.66L585.73 342.12L587.21 342.12L587.21 343.73L585.73 343.73L585.73 345.17M590.38 345.17L588.77 345.17L588.77 334.88L590.38 334.88L590.38 339.24L591.66 339.24L591.66 337.78L594.74 337.78L594.74 339.24L596.21 339.24L596.21 345.17L594.58 345.17L594.58 339.38L591.82 339.38L591.82 340.82L590.38 340.82L590.38 345.17M603.74 345.17L599.22 345.17L599.22 343.73L597.77 343.73L597.77 339.24L599.22 339.24L599.22 337.78L603.74 337.78L603.74 339.24L605.21 339.24L605.21 343.57L606.66 343.57L606.66 345.17L605.05 345.17L605.05 343.73L603.74 343.73L603.74 345.17M599.38 339.38L599.38 343.57L603.58 343.57L603.58 339.38L599.38 339.38M609.78 345.17L608.17 345.17L608.17 339.24L609.62 339.24L609.62 337.78L614.14 337.78L614.14 339.24L615.61 339.24L615.61 340.82L613.98 340.82L613.98 339.38L609.78 339.38L609.78 345.17M623.14 345.17L618.62 345.17L618.62 343.73L617.17 343.73L617.17 339.24L618.62 339.24L618.62 337.78L623.14 337.78L623.14 339.24L624.61 339.24L624.61 340.82L622.98 340.82L622.98 339.38L618.78 339.38L618.78 340.66L621.70 340.66L621.70 342.28L618.78 342.28L618.78 343.57L622.98 343.57L622.98 342.10L624.61 342.10L624.61 343.72L623.14 343.72L623.14 345.17M632.14 345.17L627.62 345.17L627.62 343.73L626.17 343.73L626.17 339.24L627.62 339.24L627.62 337.78L631.99 337.78L631.99 334.88L633.61 334.88L633.61 343.73L632.14 343.73L632.14 345.17M627.78 339.38L627.78 343.57L631.98 343.57L631.98 339.38L627.78 339.38M636.79 344.98L635.17 344.98L635.17 343.36L636.79 343.36L636.79 344.98M643.11 345.19L640.04 345.19L640.04 343.73L638.58 343.73L638.58 342.12L640.20 342.12L640.20 343.57L642.95 343.57L642.95 337.78L644.56 337.78L644.56 343.73L643.11 343.73L643.11 345.19M652.15 345.17L646.18 345.17L646.18 343.57L651.99 343.57L651.99 342.28L647.64 342.28L647.64 340.82L646.18 340.82L646.18 339.24L647.64 339.24L647.64 337.78L653.62 337.78L653.62 339.38L647.80 339.38L647.80 340.66L652.15 340.66L652.15 342.12L653.62 342.12L653.62 343.73L652.15 343.73"/>
  <path fill="#1f8a4d" d="M416.97 367.05L415.86 367.05L415.86 361.03L416.86 361.03L416.86 360.03L419.97 360.03L419.97 361.03L420.98 361.03L420.98 364.12L419.97 364.12L419.97 365.11L416.97 365.11L416.97 367.05M416.97 361.13L416.97 364.01L419.86 364.01L419.86 361.13L416.97 361.13M423.16 365.11L422.05 365.11L422.05 360.03L423.16 360.03L423.16 365.11M423.16 359.15L422.05 359.15L422.05 358.04L423.16 358.04L423.16 359.15M428.50 365.11L425.40 365.11L425.40 364.12L424.39 364.12L424.39 361.03L425.40 361.03L425.40 360.03L428.50 360.03L428.50 361.03L429.51 361.03L429.51 362.12L428.39 362.12L428.39 361.13L425.51 361.13L425.51 364.01L428.39 364.01L428.39 363.01L429.51 363.01L429.51 364.12L428.50 364.12L428.50 365.11M431.69 365.11L430.58 365.11L430.58 358.04L431.69 358.04L431.69 362.01L432.57 362.01L432.57 361.03L434.58 361.03L434.58 360.03L435.70 360.03L435.70 361.13L434.69 361.13L434.69 362.12L432.68 362.12L432.68 363.01L434.69 363.01L434.69 364.01L435.70 364.01L435.70 365.11L434.58 365.11L434.58 364.12L432.57 364.12L432.57 363.12L431.69 363.12L431.69 365.11M444 365.11L440.87 365.11L440.87 364.12L439.88 364.12L439.88 361.13L438.88 361.13L438.88 360.03L439.88 360.03L439.88 358.04L440.98 358.04L440.98 360.03L444 360.03L444 361.13L440.98 361.13L440.98 364.01L443.89 364.01L443.89 363.01L445 363.01L445 364.12L444 364.12L444 365.11M447.14 365.11L446.03 365.11L446.03 360.03L447.14 360.03L447.14 365.11M447.14 359.15L446.03 359.15L446.03 358.04L447.14 358.04L447.14 359.15M453.49 365.11L450.37 365.11L450.37 364.12L449.38 364.12L449.38 361.13L448.38 361.13L448.38 360.03L449.38 360.03L449.38 358.04L450.48 358.04L450.48 360.03L453.49 360.03L453.49 361.13L450.48 361.13L450.48 364.01L453.38 364.01L453.38 363.01L454.49 363.01L454.49 364.12L453.49 364.12L453.49 365.11M456.64 365.11L455.53 365.11L455.53 358.04L456.64 358.04L456.64 365.11M461.97 365.11L458.87 365.11L458.87 364.12L457.87 364.12L457.87 361.03L458.87 361.03L458.87 360.03L461.97 360.03L461.97 361.03L462.98 361.03L462.98 362.12L461.86 362.12L461.86 361.13L458.98 361.13L458.98 362.01L460.98 362.01L460.98 363.12L458.98 363.12L458.98 364.01L461.86 364.01L461.86 363L462.98 363L462.98 364.11L461.97 364.11L461.97 365.11M468.87 362.78L465.76 362.78L465.76 361.67L468.87 361.67L468.87 362.78M472.91 365.11L471.80 365.11L471.80 360.03L474.91 360.03L474.91 361.03L475.79 361.03L475.79 360.03L477.91 360.03L477.91 361.03L478.90 361.03L478.90 365.11L477.80 365.11L477.80 361.13L475.90 361.13L475.90 365.11L474.80 365.11L474.80 361.13L472.91 361.13L472.91 365.11M484 365.11L480.90 365.11L480.90 364.12L479.90 364.12L479.90 361.03L480.90 361.03L480.90 360.03L484 360.03L484 361.03L485.01 361.03L485.01 364.01L486.01 364.01L486.01 365.11L484.90 365.11L484.90 364.12L484 364.12L484 365.11M481.01 361.13L481.01 364.01L483.89 364.01L483.89 361.13L481.01 361.13M492.16 365.11L489.04 365.11L489.04 364.12L488.05 364.12L488.05 361.13L487.05 361.13L487.05 360.03L488.05 360.03L488.05 358.04L489.15 358.04L489.15 360.03L492.16 360.03L492.16 361.13L489.15 361.13L489.15 364.01L492.05 364.01L492.05 363.01L493.16 363.01L493.16 364.12L492.16 364.12L492.16 365.11M498.30 365.11L495.20 365.11L495.20 364.12L494.20 364.12L494.20 361.03L495.20 361.03L495.20 360.03L498.30 360.03L498.30 361.03L499.31 361.03L499.31 362.12L498.19 362.12L498.19 361.13L495.31 361.13L495.31 364.01L498.19 364.01L498.19 363.01L499.31 363.01L499.31 364.12L498.30 364.12L498.30 365.11M501.50 365.11L500.38 365.11L500.38 358.04L501.50 358.04L501.50 361.03L502.38 361.03L502.38 360.03L504.49 360.03L504.49 361.03L505.50 361.03L505.50 365.11L504.38 365.11L504.38 361.13L502.49 361.13L502.49 362.12L501.50 362.12L501.50 365.11M512.79 365.11L508.68 365.11L508.68 364.01L512.68 364.01L512.68 363.12L509.69 363.12L509.69 362.12L508.68 362.12L508.68 361.03L509.69 361.03L509.69 360.03L513.80 360.03L513.80 361.13L509.80 361.13L509.80 362.01L512.79 362.01L512.79 363.01L513.80 363.01L513.80 364.12L512.79 364.12L512.79 365.11M515.98 365.11L514.87 365.11L514.87 358.04L515.98 358.04L515.98 361.03L516.86 361.03L516.86 360.03L518.98 360.03L518.98 361.03L519.99 361.03L519.99 365.11L518.87 365.11L518.87 361.13L516.97 361.13L516.97 362.12L515.98 362.12L515.98 365.11M525.16 365.11L522.06 365.11L522.06 364.12L521.06 364.12L521.06 361.03L522.06 361.03L522.06 360.03L525.16 360.03L525.16 361.03L526.18 361.03L526.18 364.12L525.16 364.12L525.16 365.11M522.17 361.13L522.17 364.01L525.05 364.01L525.05 361.13L522.17 361.13M530.36 365.11L527.25 365.11L527.25 360.03L528.36 360.03L528.36 364.01L530.25 364.01L530.25 360.03L531.35 360.03L531.35 364.01L533.26 364.01L533.26 360.03L534.36 360.03L534.36 364.12L533.37 364.12L533.37 365.11L531.24 365.11L531.24 364.12L530.36 364.12L530.36 365.11M540.16 362.78L537.05 362.78L537.05 361.67L540.16 361.67L540.16 362.78M547.19 365.11L544.09 365.11L544.09 364.12L543.09 364.12L543.09 361.03L544.09 361.03L544.09 360.03L547.19 360.03L547.19 361.03L548.20 361.03L548.20 362.12L547.08 362.12L547.08 361.13L544.20 361.13L544.20 362.01L546.20 362.01L546.20 363.12L544.20 363.12L544.20 364.01L547.08 364.01L547.08 363L548.20 363L548.20 364.11L547.19 364.11L547.19 365.11M550.39 367.05L549.28 367.05L549.28 361.03L550.28 361.03L550.28 360.03L553.38 360.03L553.38 361.03L554.39 361.03L554.39 364.12L553.38 364.12L553.38 365.11L550.39 365.11L550.39 367.05M550.39 361.13L550.39 364.01L553.27 364.01L553.27 361.13L550.39 361.13M556.58 365.11L555.47 365.11L555.47 360.03L556.58 360.03L556.58 365.11M556.58 359.15L555.47 359.15L555.47 358.04L556.58 358.04L556.58 359.15M561.91 365.11L557.81 365.11L557.81 364.01L561.80 364.01L561.80 363.12L558.81 363.12L558.81 362.12L557.81 362.12L557.81 361.03L558.81 361.03L558.81 360.03L562.92 360.03L562.92 361.13L558.92 361.13L558.92 362.01L561.91 362.01L561.91 363.01L562.92 363.01L562.92 364.12L561.91 364.12L561.91 365.11M568.10 365.11L565 365.11L565 364.12L564 364.12L564 361.03L565 361.03L565 360.03L568.10 360.03L568.10 361.03L569.11 361.03L569.11 364.12L568.10 364.12L568.10 365.11M565.11 361.13L565.11 364.01L567.99 364.01L567.99 361.13L565.11 361.13M574.29 365.11L571.19 365.11L571.19 364.12L570.19 364.12L570.19 361.03L571.19 361.03L571.19 360.03L574.19 360.03L574.19 358.04L575.30 358.04L575.30 364.12L574.29 364.12L574.29 365.11M571.30 361.13L571.30 364.01L574.18 364.01L574.18 361.13L571.30 361.13M580.48 365.11L577.38 365.11L577.38 364.12L576.37 364.12L576.37 361.03L577.38 361.03L577.38 360.03L580.48 360.03L580.48 361.03L581.49 361.03L581.49 362.12L580.37 362.12L580.37 361.13L577.49 361.13L577.49 362.01L579.49 362.01L579.49 363.12L577.49 363.12L577.49 364.01L580.37 364.01L580.37 363L581.49 363L581.49 364.11L580.48 364.11L580.48 365.11M587.37 362.78L584.27 362.78L584.27 361.67L587.37 361.67L587.37 362.78M591.41 365.11L590.30 365.11L590.30 361.03L591.30 361.03L591.30 360.03L594.41 360.03L594.41 361.03L595.42 361.03L595.42 362.12L594.30 362.12L594.30 361.13L591.41 361.13L591.41 365.11M600.59 365.11L597.49 365.11L597.49 364.12L596.49 364.12L596.49 361.03L597.49 361.03L597.49 360.03L600.59 360.03L600.59 361.03L601.61 361.03L601.61 362.12L600.48 362.12L600.48 361.13L597.60 361.13L597.60 362.01L599.60 362.01L599.60 363.12L597.60 363.12L597.60 364.01L600.48 364.01L600.48 363L601.61 363L601.61 364.11L600.59 364.11L600.59 365.11M606.78 365.11L602.68 365.11L602.68 364.01L606.67 364.01L606.67 363.12L603.68 363.12L603.68 362.12L602.68 362.12L602.68 361.03L603.68 361.03L603.68 360.03L607.79 360.03L607.79 361.13L603.79 361.13L603.79 362.01L606.78 362.01L606.78 363.01L607.79 363.01L607.79 364.12L606.78 364.12L606.78 365.11M612.97 365.11L609.87 365.11L609.87 364.12L608.87 364.12L608.87 361.03L609.87 361.03L609.87 360.03L612.97 360.03L612.97 361.03L613.98 361.03L613.98 364.12L612.97 364.12L612.97 365.11M609.98 361.13L609.98 364.01L612.86 364.01L612.86 361.13L609.98 361.13M616.17 365.11L615.06 365.11L615.06 358.04L616.17 358.04L616.17 365.11M621.50 365.11L618.40 365.11L618.40 364.12L617.40 364.12L617.40 360.03L618.51 360.03L618.51 364.01L621.39 364.01L621.39 360.03L622.51 360.03L622.51 364.12L621.50 364.12L621.50 365.11M628.70 365.11L625.58 365.11L625.58 364.12L624.59 364.12L624.59 361.13L623.59 361.13L623.59 360.03L624.59 360.03L624.59 358.04L625.69 358.04L625.69 360.03L628.70 360.03L628.70 361.13L625.69 361.13L625.69 364.01L628.59 364.01L628.59 363.01L629.70 363.01L629.70 364.12L628.70 364.12L628.70 365.11M631.85 365.11L630.74 365.11L630.74 360.03L631.85 360.03L631.85 365.11M631.85 359.15L630.74 359.15L630.74 358.04L631.85 358.04L631.85 359.15M637.18 365.11L634.08 365.11L634.08 364.12L633.08 364.12L633.08 361.03L634.08 361.03L634.08 360.03L637.18 360.03L637.18 361.03L638.20 361.03L638.20 364.12L637.18 364.12L637.18 365.11M634.19 361.13L634.19 364.01L637.07 364.01L637.07 361.13L634.19 361.13M640.38 365.11L639.27 365.11L639.27 360.03L643.37 360.03L643.37 361.03L644.38 361.03L644.38 365.11L643.26 365.11L643.26 361.13L640.38 361.13"/>
  <rect x="295" y="424" width="470" height="50" rx="7" fill="#06190f" stroke="#3dff88" stroke-width="2"/>
  <path fill="#3dff88" d="M428.51 445.88L427 445.88L427 436.24L428.51 436.24L428.51 440.31L429.71 440.31L429.71 438.95L431.24 438.95L431.24 440.31L432.44 440.31L432.44 436.24L433.97 436.24L433.97 445.88L432.44 445.88L432.44 441.80L428.51 441.80L428.51 445.88M441.03 445.88L436.80 445.88L436.80 444.53L435.44 444.53L435.44 440.31L436.80 440.31L436.80 438.95L441.03 438.95L441.03 440.31L442.41 440.31L442.41 444.38L443.78 444.38L443.78 445.88L442.26 445.88L442.26 444.53L441.03 444.53L441.03 445.88M436.95 440.45L436.95 444.38L440.88 444.38L440.88 440.45L436.95 440.45M450.79 448.59L446.55 448.59L446.55 447.25L445.18 447.25L445.18 445.75L446.70 445.75L446.70 447.09L450.64 447.09L450.64 444.53L446.55 444.53L446.55 443.16L445.18 443.16L445.18 438.95L446.70 438.95L446.70 443.01L450.64 443.01L450.64 438.95L452.16 438.95L452.16 447.25L450.79 447.25L450.79 448.59M459.22 445.88L454.99 445.88L454.99 444.53L453.62 444.53L453.62 440.31L454.99 440.31L454.99 438.95L459.22 438.95L459.22 440.31L460.60 440.31L460.60 444.38L461.96 444.38L461.96 445.88L460.45 445.88L460.45 444.53L459.22 444.53L459.22 445.88M455.14 440.45L455.14 444.38L459.07 444.38L459.07 440.45L455.14 440.45M468.97 445.88L463.37 445.88L463.37 444.38L468.82 444.38L468.82 443.16L464.74 443.16L464.74 441.80L463.37 441.80L463.37 440.31L464.74 440.31L464.74 438.95L470.35 438.95L470.35 440.45L464.89 440.45L464.89 441.65L468.97 441.65L468.97 443.01L470.35 443.01L470.35 444.53L468.97 444.53L468.97 445.88M477.40 445.88L473.17 445.88L473.17 444.53L471.81 444.53L471.81 440.31L473.17 440.31L473.17 438.95L477.40 438.95L477.40 440.31L478.78 440.31L478.78 441.80L477.25 441.80L477.25 440.45L473.32 440.45L473.32 441.65L476.05 441.65L476.05 443.16L473.32 443.16L473.32 444.38L477.25 444.38L477.25 443L478.78 443L478.78 444.51L477.40 444.51L477.40 445.88M484.64 445.88L483.13 445.88L483.13 438.95L487.37 438.95L487.37 440.31L488.57 440.31L488.57 438.95L491.47 438.95L491.47 440.31L492.82 440.31L492.82 445.88L491.32 445.88L491.32 440.45L488.72 440.45L488.72 445.88L487.22 445.88L487.22 440.45L484.64 440.45L484.64 445.88M499.77 445.88L495.54 445.88L495.54 444.53L494.17 444.53L494.17 440.31L495.54 440.31L495.54 438.95L499.77 438.95L499.77 440.31L501.15 440.31L501.15 441.80L499.62 441.80L499.62 440.45L495.69 440.45L495.69 441.65L498.42 441.65L498.42 443.16L495.69 443.16L495.69 444.38L499.62 444.38L499.62 443L501.15 443L501.15 444.51L499.77 444.51L499.77 445.88M504.13 445.88L502.61 445.88L502.61 440.31L503.98 440.31L503.98 438.95L508.21 438.95L508.21 440.31L509.59 440.31L509.59 441.80L508.06 441.80L508.06 440.45L504.13 440.45L504.13 445.88M516.66 448.59L512.41 448.59L512.41 447.25L511.05 447.25L511.05 445.75L512.56 445.75L512.56 447.09L516.51 447.09L516.51 444.53L512.41 444.53L512.41 443.16L511.05 443.16L511.05 440.31L512.41 440.31L512.41 438.95L516.66 438.95L516.66 440.31L518.02 440.31L518.02 447.25L516.66 447.25L516.66 448.59M512.56 440.45L512.56 443.01L516.51 443.01L516.51 440.45L512.56 440.45M525.08 445.88L520.85 445.88L520.85 444.53L519.49 444.53L519.49 440.31L520.85 440.31L520.85 438.95L525.08 438.95L525.08 440.31L526.46 440.31L526.46 441.80L524.93 441.80L524.93 440.45L521 440.45L521 441.65L523.73 441.65L523.73 443.16L521 443.16L521 444.38L524.93 444.38L524.93 443L526.46 443L526.46 444.51L525.08 444.51L525.08 445.88M533.52 445.88L527.93 445.88L527.93 444.38L533.37 444.38L533.37 443.16L529.29 443.16L529.29 441.80L527.93 441.80L527.93 440.31L529.29 440.31L529.29 438.95L534.90 438.95L534.90 440.45L529.44 440.45L529.44 441.65L533.52 441.65L533.52 443.01L534.90 443.01L534.90 444.53L533.52 444.53L533.52 445.88M544.84 445.88L540.61 445.88L540.61 444.53L539.24 444.53L539.24 440.31L540.61 440.31L540.61 438.95L544.84 438.95L544.84 440.31L546.22 440.31L546.22 441.80L544.69 441.80L544.69 440.45L540.76 440.45L540.76 441.65L543.49 441.65L543.49 443.16L540.76 443.16L540.76 444.38L544.69 444.38L544.69 443L546.22 443L546.22 444.51L544.84 444.51L544.84 445.88M551.78 445.88L550.26 445.88L550.26 444.53L548.90 444.53L548.90 441.80L547.53 441.80L547.53 438.95L549.05 438.95L549.05 441.65L550.40 441.65L550.40 444.38L551.63 444.38L551.63 441.65L552.98 441.65L552.98 438.95L554.51 438.95L554.51 441.80L553.13 441.80L553.13 444.53L551.78 444.53L551.78 445.88M561.57 445.88L557.34 445.88L557.34 444.53L555.98 444.53L555.98 440.31L557.34 440.31L557.34 438.95L561.57 438.95L561.57 440.31L562.95 440.31L562.95 441.80L561.42 441.80L561.42 440.45L557.49 440.45L557.49 441.65L560.22 441.65L560.22 443.16L557.49 443.16L557.49 444.38L561.42 444.38L561.42 443L562.95 443L562.95 444.51L561.57 444.51L561.57 445.88M565.93 445.88L564.42 445.88L564.42 440.31L565.78 440.31L565.78 438.95L570.01 438.95L570.01 440.31L571.39 440.31L571.39 441.80L569.86 441.80L569.86 440.45L565.93 440.45L565.93 445.88M578.46 448.59L574.22 448.59L574.22 447.25L572.85 447.25L572.85 445.75L574.37 445.75L574.37 447.09L578.31 447.09L578.31 444.53L574.22 444.53L574.22 443.16L572.85 443.16L572.85 438.95L574.37 438.95L574.37 443.01L578.31 443.01L578.31 438.95L579.83 438.95L579.83 447.25L578.46 447.25L578.46 448.59M589.77 445.88L584.17 445.88L584.17 444.38L589.62 444.38L589.62 443.16L585.54 443.16L585.54 441.80L584.17 441.80L584.17 440.31L585.54 440.31L585.54 438.95L591.15 438.95L591.15 440.45L585.69 440.45L585.69 441.65L589.77 441.65L589.77 443.01L591.15 443.01L591.15 444.53L589.77 444.53L589.77 445.88M598.21 445.88L593.98 445.88L593.98 444.53L592.61 444.53L592.61 440.31L593.98 440.31L593.98 438.95L598.21 438.95L598.21 440.31L599.59 440.31L599.59 444.53L598.21 444.53L598.21 445.88M594.13 440.45L594.13 444.38L598.06 444.38L598.06 440.45L594.13 440.45M606.64 445.88L602.41 445.88L602.41 444.53L601.05 444.53L601.05 438.95L602.56 438.95L602.56 444.38L606.49 444.38L606.49 438.95L608.02 438.95L608.02 444.53L606.64 444.53L606.64 445.88M611 445.88L609.49 445.88L609.49 440.31L610.85 440.31L610.85 438.95L615.08 438.95L615.08 440.31L616.46 440.31L616.46 441.80L614.93 441.80L614.93 440.45L611 440.45L611 445.88M623.52 445.88L619.29 445.88L619.29 444.53L617.93 444.53L617.93 440.31L619.29 440.31L619.29 438.95L623.52 438.95L623.52 440.31L624.90 440.31L624.90 441.80L623.37 441.80L623.37 440.45L619.44 440.45L619.44 444.38L623.37 444.38L623.37 443.01L624.90 443.01L624.90 444.53L623.52 444.53L623.52 445.88M631.96 445.88L627.73 445.88L627.73 444.53L626.36 444.53L626.36 440.31L627.73 440.31L627.73 438.95L631.96 438.95L631.96 440.31L633.34 440.31L633.34 441.80L631.81 441.80L631.81 440.45L627.88 440.45L627.88 441.65L630.61 441.65L630.61 443.16L627.88 443.16L627.88 444.38L631.81 444.38L631.81 443L633.34 443L633.34 444.51L631.96 444.51"/>
  <path fill="#1f8a4d" d="M470.24 464.83L467.14 464.83L467.14 463.84L466.14 463.84L466.14 460.75L467.14 460.75L467.14 459.75L470.14 459.75L470.14 457.76L471.25 457.76L471.25 463.84L470.24 463.84L470.24 464.83M467.25 460.85L467.25 463.73L470.13 463.73L470.13 460.85L467.25 460.85M476.43 464.83L473.33 464.83L473.33 463.84L472.33 463.84L472.33 460.75L473.33 460.75L473.33 459.75L476.43 459.75L476.43 460.75L477.44 460.75L477.44 461.84L476.32 461.84L476.32 460.85L473.44 460.85L473.44 461.73L475.44 461.73L475.44 462.84L473.44 462.84L473.44 463.73L476.32 463.73L476.32 462.72L477.44 462.72L477.44 463.83L476.43 463.83L476.43 464.83M481.21 462.50L478.11 462.50L478.11 461.39L481.21 461.39L481.21 462.50M486.13 464.83L483.03 464.83L483.03 463.84L482.03 463.84L482.03 460.75L483.03 460.75L483.03 459.75L486.04 459.75L486.04 457.76L487.15 457.76L487.15 463.84L486.13 463.84L486.13 464.83M483.14 460.85L483.14 463.73L486.02 463.73L486.02 460.85L483.14 460.85M492.32 464.83L489.22 464.83L489.22 463.84L488.22 463.84L488.22 459.75L489.33 459.75L489.33 463.73L492.21 463.73L492.21 459.75L493.33 459.75L493.33 463.84L492.32 463.84L492.32 464.83M495.52 466.77L494.41 466.77L494.41 460.75L495.41 460.75L495.41 459.75L498.51 459.75L498.51 460.75L499.52 460.75L499.52 463.84L498.51 463.84L498.51 464.83L495.52 464.83L495.52 466.77M495.52 460.85L495.52 463.73L498.40 463.73L498.40 460.85L495.52 460.85M501.71 464.83L500.60 464.83L500.60 457.76L501.71 457.76L501.71 464.83M504.05 464.83L502.94 464.83L502.94 459.75L504.05 459.75L504.05 464.83M504.05 458.87L502.94 458.87L502.94 457.76L504.05 457.76L504.05 458.87M509.39 464.83L506.29 464.83L506.29 463.84L505.28 463.84L505.28 460.75L506.29 460.75L506.29 459.75L509.39 459.75L509.39 460.75L510.40 460.75L510.40 461.84L509.28 461.84L509.28 460.85L506.40 460.85L506.40 463.73L509.28 463.73L509.28 462.73L510.40 462.73L510.40 463.84L509.39 463.84L509.39 464.83M515.58 464.83L512.47 464.83L512.47 463.84L511.47 463.84L511.47 460.75L512.47 460.75L512.47 459.75L515.58 459.75L515.58 460.75L516.59 460.75L516.59 463.73L517.59 463.73L517.59 464.83L516.48 464.83L516.48 463.84L515.58 463.84L515.58 464.83M512.58 460.85L512.58 463.73L515.47 463.73L515.47 460.85L512.58 460.85M523.74 464.83L520.61 464.83L520.61 463.84L519.62 463.84L519.62 460.85L518.62 460.85L518.62 459.75L519.62 459.75L519.62 457.76L520.72 457.76L520.72 459.75L523.74 459.75L523.74 460.85L520.72 460.85L520.72 463.73L523.63 463.73L523.63 462.73L524.74 462.73L524.74 463.84L523.74 463.84L523.74 464.83M529.87 464.83L526.77 464.83L526.77 463.84L525.77 463.84L525.77 460.75L526.77 460.75L526.77 459.75L529.87 459.75L529.87 460.75L530.89 460.75L530.89 461.84L529.76 461.84L529.76 460.85L526.88 460.85L526.88 461.73L528.88 461.73L528.88 462.84L526.88 462.84L526.88 463.73L529.76 463.73L529.76 462.72L530.89 462.72L530.89 463.83L529.87 463.83L529.87 464.83M538.17 464.83L535.07 464.83L535.07 463.84L534.07 463.84L534.07 457.76L535.18 457.76L535.18 459.75L538.17 459.75L538.17 460.75L539.19 460.75L539.19 463.84L538.17 463.84L538.17 464.83M535.18 460.85L535.18 463.73L538.06 463.73L538.06 460.85L535.18 460.85M544.37 466.82L541.26 466.82L541.26 465.83L540.26 465.83L540.26 464.73L541.37 464.73L541.37 465.72L544.26 465.72L544.26 463.84L541.26 463.84L541.26 462.84L540.26 462.84L540.26 459.75L541.37 459.75L541.37 462.73L544.26 462.73L544.26 459.75L545.37 459.75L545.37 465.83L544.37 465.83L544.37 466.82M549.67 464.83L548.56 464.83L548.56 459.75L549.67 459.75L549.67 464.83M549.67 458.87L548.56 458.87L548.56 457.76L549.67 457.76L549.67 458.87M552.01 464.83L550.90 464.83L550.90 459.75L555.01 459.75L555.01 460.75L556.02 460.75L556.02 464.83L554.90 464.83L554.90 460.85L552.01 460.85L552.01 464.83M558.20 464.83L557.09 464.83L557.09 458.76L558.09 458.76L558.09 457.76L561.19 457.76L561.19 458.76L562.21 458.76L562.21 459.86L561.08 459.86L561.08 458.87L558.20 458.87L558.20 460.75L560.20 460.75L560.20 461.84L558.20 461.84L558.20 464.83M567.38 464.83L564.28 464.83L564.28 463.84L563.28 463.84L563.28 460.75L564.28 460.75L564.28 459.75L567.38 459.75L567.38 460.75L568.39 460.75L568.39 463.84L567.38 463.84L567.38 464.83M564.39 460.85L564.39 463.73L567.27 463.73L567.27 460.85L564.39 460.85M570.58 464.83L569.47 464.83L569.47 457.76L570.58 457.76L570.58 460.75L571.46 460.75L571.46 459.75L573.57 459.75L573.57 460.75L574.58 460.75L574.58 464.83L573.46 464.83L573.46 460.85L571.57 460.85L571.57 461.84L570.58 461.84L570.58 464.83M579.76 464.83L576.66 464.83L576.66 463.84L575.66 463.84L575.66 460.75L576.66 460.75L576.66 459.75L579.76 459.75L579.76 460.75L580.77 460.75L580.77 463.73L581.77 463.73L581.77 464.83L580.66 464.83L580.66 463.84L579.76 463.84L579.76 464.83M576.77 460.85L576.77 463.73L579.65 463.73L579.65 460.85L576.77 460.85M586.91 464.83L582.81 464.83L582.81 463.73L586.80 463.73L586.80 462.84L583.81 462.84L583.81 461.84L582.81 461.84L582.81 460.75L583.81 460.75L583.81 459.75L587.92 459.75L587.92 460.85L583.92 460.85L583.92 461.73L586.91 461.73L586.91 462.73L587.92 462.73L587.92 463.84L586.91 463.84L586.91 464.83M590.10 464.83L588.99 464.83L588.99 457.76L590.10 457.76L590.10 460.75L590.98 460.75L590.98 459.75L593.10 459.75L593.10 460.75L594.11 460.75L594.11 464.83L592.99 464.83L592.99 460.85L591.09 460.85L591.09 461.84L590.10 461.84"/>
  <rect x="350" y="516" width="360" height="48" rx="7" fill="#06190f" stroke="#3dff88" stroke-width="2"/>
  <path fill="#3dff88" d="M449.19 544.96L447.48 544.96L447.48 538.66L449.02 538.66L449.02 537.11L453.82 537.11L453.82 538.66L455.38 538.66L455.38 540.34L453.65 540.34L453.65 538.81L449.19 538.81L449.19 544.96M463.38 544.96L458.59 544.96L458.59 543.43L457.04 543.43L457.04 538.66L458.59 538.66L458.59 537.11L463.38 537.11L463.38 538.66L464.95 538.66L464.95 540.34L463.21 540.34L463.21 538.81L458.76 538.81L458.76 540.17L461.85 540.17L461.85 541.89L458.76 541.89L458.76 543.26L463.21 543.26L463.21 541.70L464.95 541.70L464.95 543.42L463.38 543.42L463.38 544.96M472.95 544.96L466.60 544.96L466.60 543.26L472.78 543.26L472.78 541.89L468.15 541.89L468.15 540.34L466.60 540.34L466.60 538.66L468.15 538.66L468.15 537.11L474.51 537.11L474.51 538.81L468.32 538.81L468.32 540.17L472.95 540.17L472.95 541.72L474.51 541.72L474.51 543.43L472.95 543.43L472.95 544.96M482.51 544.96L477.72 544.96L477.72 543.43L476.17 543.43L476.17 537.11L477.89 537.11L477.89 543.26L482.34 543.26L482.34 537.11L484.07 537.11L484.07 543.43L482.51 543.43L482.51 544.96M487.45 544.96L485.73 544.96L485.73 534.03L487.45 534.03L487.45 544.96M497.26 544.96L492.43 544.96L492.43 543.43L490.90 543.43L490.90 538.81L489.36 538.81L489.36 537.11L490.90 537.11L490.90 534.03L492.60 534.03L492.60 537.11L497.26 537.11L497.26 538.81L492.60 538.81L492.60 543.26L497.09 543.26L497.09 541.72L498.81 541.72L498.81 543.43L497.26 543.43L497.26 544.96M506.74 544.96L500.40 544.96L500.40 543.26L506.57 543.26L506.57 541.89L501.95 541.89L501.95 540.34L500.40 540.34L500.40 538.66L501.95 538.66L501.95 537.11L508.31 537.11L508.31 538.81L502.12 538.81L502.12 540.17L506.74 540.17L506.74 541.72L508.31 541.72L508.31 543.43L506.74 543.43L506.74 544.96M514.95 544.96L513.23 544.96L513.23 537.11L514.95 537.11L514.95 544.96M514.95 535.75L513.23 535.75L513.23 534.03L514.95 534.03L514.95 535.75M518.57 544.96L516.85 544.96L516.85 537.11L523.20 537.11L523.20 538.66L524.76 538.66L524.76 544.96L523.03 544.96L523.03 538.81L518.57 538.81L518.57 544.96M537.59 544.96L532.76 544.96L532.76 543.43L531.23 543.43L531.23 538.81L529.68 538.81L529.68 537.11L531.23 537.11L531.23 534.03L532.93 534.03L532.93 537.11L537.59 537.11L537.59 538.81L532.93 538.81L532.93 543.26L537.42 543.26L537.42 541.72L539.13 541.72L539.13 543.43L537.59 543.43L537.59 544.96M542.45 544.96L540.73 544.96L540.73 534.03L542.45 534.03L542.45 538.66L543.81 538.66L543.81 537.11L547.07 537.11L547.07 538.66L548.64 538.66L548.64 544.96L546.90 544.96L546.90 538.81L543.98 538.81L543.98 540.34L542.45 540.34L542.45 544.96M556.63 544.96L551.84 544.96L551.84 543.43L550.29 543.43L550.29 538.66L551.84 538.66L551.84 537.11L556.63 537.11L556.63 538.66L558.20 538.66L558.20 540.34L556.46 540.34L556.46 538.81L552.01 538.81L552.01 540.17L555.10 540.17L555.10 541.89L552.01 541.89L552.01 543.26L556.46 543.26L556.46 541.70L558.20 541.70L558.20 543.42L556.63 543.42L556.63 544.96M564.84 547.96L563.12 547.96L563.12 538.66L564.67 538.66L564.67 537.11L569.46 537.11L569.46 538.66L571.03 538.66L571.03 543.43L569.46 543.43L569.46 544.96L564.84 544.96L564.84 547.96M564.84 538.81L564.84 543.26L569.29 543.26L569.29 538.81L564.84 538.81M574.40 544.96L572.68 544.96L572.68 537.11L574.40 537.11L574.40 544.96M574.40 535.75L572.68 535.75L572.68 534.03L574.40 534.03L574.40 535.75M582.65 544.96L577.85 544.96L577.85 543.43L576.31 543.43L576.31 538.66L577.85 538.66L577.85 537.11L582.65 537.11L582.65 538.66L584.21 538.66L584.21 540.34L582.48 540.34L582.48 538.81L578.02 538.81L578.02 543.26L582.48 543.26L582.48 541.72L584.21 541.72L584.21 543.43L582.65 543.43L582.65 544.96M587.59 544.96L585.87 544.96L585.87 534.03L587.59 534.03L587.59 540.17L588.95 540.17L588.95 538.66L592.04 538.66L592.04 537.11L593.78 537.11L593.78 538.81L592.21 538.81L592.21 540.34L589.12 540.34L589.12 541.72L592.21 541.72L592.21 543.26L593.78 543.26L593.78 544.96L592.04 544.96L592.04 543.43L588.95 543.43L588.95 541.89L587.59 541.89L587.59 544.96M601.78 544.96L596.98 544.96L596.98 543.43L595.44 543.43L595.44 538.66L596.98 538.66L596.98 537.11L601.78 537.11L601.78 538.66L603.34 538.66L603.34 540.34L601.61 540.34L601.61 538.81L597.15 538.81L597.15 540.17L600.25 540.17L600.25 541.89L597.15 541.89L597.15 543.26L601.61 543.26L601.61 541.70L603.34 541.70L603.34 543.42L601.78 543.42L601.78 544.96M606.72 544.96L605 544.96L605 538.66L606.55 538.66L606.55 537.11L611.34 537.11L611.34 538.66L612.90 538.66L612.90 540.34L611.17 540.34L611.17 538.81L606.72 538.81"/>
  </g>

  <rect x="6" y="6" width="1048" height="588" rx="22" fill="url(#scan)"/>
</svg>
