<svg xmlns="http://www.w3.org/2000/svg" width="1280" height="640" viewBox="0 0 1280 640">
  <rect width="1280" height="640" fill="#0a0a0a"/>
  <g transform="translate(44.728399999999894 138.09)"><path fill="#f6f8fa" opacity="1" d="M95.26 222.64L33.22 222.64L33.22 202.84L13.20 202.84L13.20 141.02L33.22 141.02L33.22 121L95.26 121L95.26 141.02L115.50 141.02L115.50 200.64L135.52 200.64L135.52 222.64L113.30 222.64L113.30 202.84L95.26 202.84L95.26 222.64M35.42 143L35.42 200.64L93.06 200.64L93.06 143L35.42 143M173.93 222.64L151.71 222.64L151.71 121L233.77 121L233.77 141.02L254.01 141.02L254.01 222.64L231.57 222.64L231.57 143L173.93 143L173.93 222.64M293.83 222.64L271.61 222.64L271.61 121L293.83 121L293.83 222.64M293.83 103.40L271.61 103.40L271.61 81.18L293.83 81.18L293.83 103.40M419.33 222.64L356.85 222.64L356.85 202.84L337.05 202.84L337.05 143L317.03 143L317.03 121L337.05 121L337.05 81.18L359.05 81.18L359.05 121L419.33 121L419.33 143L359.05 143L359.05 200.64L417.13 200.64L417.13 180.62L439.35 180.62L439.35 202.84L419.33 202.84L419.33 222.64M537.61 222.64L475.57 222.64L475.57 202.84L455.55 202.84L455.55 141.02L475.57 141.02L475.57 121L537.61 121L537.61 141.02L557.85 141.02L557.85 202.84L537.61 202.84L537.61 222.64M477.77 143L477.77 200.64L535.41 200.64L535.41 143L477.77 143M597.66 222.64L575.44 222.64L575.44 141.02L595.46 141.02L595.46 121L657.50 121L657.50 141.02L677.74 141.02L677.74 162.80L655.30 162.80L655.30 143L597.66 143L597.66 222.64M717.56 222.64L695.34 222.64L695.34 141.02L715.36 141.02L715.36 121L777.40 121L777.40 141.02L797.64 141.02L797.64 162.80L775.20 162.80L775.20 143L717.56 143L717.56 222.64M897.29 222.64L835.25 222.64L835.25 202.84L815.23 202.84L815.23 141.02L835.25 141.02L835.25 121L897.29 121L897.29 141.02L917.53 141.02L917.53 162.80L895.09 162.80L895.09 143L837.45 143L837.45 160.60L877.49 160.60L877.49 182.82L837.45 182.82L837.45 200.64L895.09 200.64L895.09 180.40L917.53 180.40L917.53 202.62L897.29 202.62L897.29 222.64M957.35 222.64L935.13 222.64L935.13 121L1017.19 121L1017.19 141.02L1037.43 141.02L1037.43 222.64L1014.99 222.64L1014.99 143L957.35 143L957.35 222.64M1157.32 222.64L1094.84 222.64L1094.84 202.84L1075.04 202.84L1075.04 143L1055.02 143L1055.02 121L1075.04 121L1075.04 81.18L1097.04 81.18L1097.04 121L1157.32 121L1157.32 143L1097.04 143L1097.04 200.64L1155.12 200.64L1155.12 180.62L1177.34 180.62L1177.34 202.84L1157.32 202.84"/></g>
  <g transform="translate(381.60064 403.01800000000003)"><path fill="#f6f8fa" opacity="0.85" d="M7.73 48.58L2.88 48.58L2.88 17.71L7.73 17.71L7.73 30.77L11.57 30.77L11.57 26.40L16.46 26.40L16.46 30.77L20.30 30.77L20.30 17.71L25.20 17.71L25.20 48.58L20.30 48.58L20.30 35.52L7.73 35.52L7.73 48.58M46.94 48.58L33.41 48.58L33.41 44.26L29.04 44.26L29.04 30.77L33.41 30.77L33.41 26.40L46.94 26.40L46.94 30.77L51.36 30.77L51.36 43.78L55.73 43.78L55.73 48.58L50.88 48.58L50.88 44.26L46.94 44.26L46.94 48.58M33.89 31.20L33.89 43.78L46.46 43.78L46.46 31.20L33.89 31.20M77.21 57.26L63.63 57.26L63.63 52.94L59.26 52.94L59.26 48.14L64.11 48.14L64.11 52.46L76.73 52.46L76.73 44.26L63.63 44.26L63.63 39.89L59.26 39.89L59.26 26.40L64.11 26.40L64.11 39.41L76.73 39.41L76.73 26.40L81.58 26.40L81.58 52.94L77.21 52.94L77.21 57.26M103.32 48.58L89.79 48.58L89.79 44.26L85.42 44.26L85.42 30.77L89.79 30.77L89.79 26.40L103.32 26.40L103.32 30.77L107.74 30.77L107.74 43.78L112.11 43.78L112.11 48.58L107.26 48.58L107.26 44.26L103.32 44.26L103.32 48.58M90.27 31.20L90.27 43.78L102.84 43.78L102.84 31.20L90.27 31.20M133.54 48.58L115.64 48.58L115.64 43.78L133.06 43.78L133.06 39.89L120.01 39.89L120.01 35.52L115.64 35.52L115.64 30.77L120.01 30.77L120.01 26.40L137.96 26.40L137.96 31.20L120.49 31.20L120.49 35.04L133.54 35.04L133.54 39.41L137.96 39.41L137.96 44.26L133.54 44.26L133.54 48.58M159.70 48.58L146.17 48.58L146.17 44.26L141.80 44.26L141.80 30.77L146.17 30.77L146.17 26.40L159.70 26.40L159.70 30.77L164.12 30.77L164.12 35.52L159.22 35.52L159.22 31.20L146.65 31.20L146.65 35.04L155.38 35.04L155.38 39.89L146.65 39.89L146.65 43.78L159.22 43.78L159.22 39.36L164.12 39.36L164.12 44.21L159.70 44.21L159.70 48.58M194.79 48.58L181.25 48.58L181.25 44.26L176.89 44.26L176.89 30.77L181.25 30.77L181.25 26.40L194.79 26.40L194.79 30.77L199.21 30.77L199.21 35.52L194.31 35.52L194.31 31.20L181.73 31.20L181.73 35.04L190.47 35.04L190.47 39.89L181.73 39.89L181.73 43.78L194.31 43.78L194.31 39.36L199.21 39.36L199.21 44.21L194.79 44.21L194.79 48.58M207.89 48.58L203.05 48.58L203.05 43.78L207.41 43.78L207.41 39.41L211.73 39.41L211.73 35.52L207.41 35.52L207.41 31.20L203.05 31.20L203.05 26.40L207.89 26.40L207.89 30.77L212.21 30.77L212.21 35.04L216.15 35.04L216.15 30.77L220.47 30.77L220.47 26.40L225.37 26.40L225.37 31.20L220.95 31.20L220.95 35.52L216.63 35.52L216.63 39.41L220.95 39.41L220.95 43.78L225.37 43.78L225.37 48.58L220.47 48.58L220.47 44.26L216.15 44.26L216.15 39.89L212.21 39.89L212.21 44.26L207.89 44.26L207.89 48.58M251.52 48.58L237.89 48.58L237.89 44.26L233.57 44.26L233.57 31.20L229.20 31.20L229.20 26.40L233.57 26.40L233.57 17.71L238.37 17.71L238.37 26.40L251.52 26.40L251.52 31.20L238.37 31.20L238.37 43.78L251.04 43.78L251.04 39.41L255.89 39.41L255.89 44.26L251.52 44.26L251.52 48.58M277.33 48.58L263.79 48.58L263.79 44.26L259.43 44.26L259.43 30.77L263.79 30.77L263.79 26.40L277.33 26.40L277.33 30.77L281.75 30.77L281.75 35.52L276.85 35.52L276.85 31.20L264.27 31.20L264.27 35.04L273.01 35.04L273.01 39.89L264.27 39.89L264.27 43.78L276.85 43.78L276.85 39.36L281.75 39.36L281.75 44.21L277.33 44.21L277.33 48.58M290.43 48.58L285.59 48.58L285.59 26.40L303.49 26.40L303.49 30.77L307.91 30.77L307.91 48.58L303.01 48.58L303.01 31.20L290.43 31.20L290.43 48.58M329.65 48.58L311.74 48.58L311.74 43.78L329.17 43.78L329.17 39.89L316.11 39.89L316.11 35.52L311.74 35.52L311.74 30.77L316.11 30.77L316.11 26.40L334.06 26.40L334.06 31.20L316.59 31.20L316.59 35.04L329.65 35.04L329.65 39.41L334.06 39.41L334.06 44.26L329.65 44.26L329.65 48.58M342.75 48.58L337.90 48.58L337.90 26.40L342.75 26.40L342.75 48.58M342.75 22.56L337.90 22.56L337.90 17.71L342.75 17.71L342.75 22.56M365.72 48.58L352.18 48.58L352.18 44.26L347.81 44.26L347.81 30.77L352.18 30.77L352.18 26.40L365.72 26.40L365.72 30.77L370.13 30.77L370.13 44.26L365.72 44.26L365.72 48.58M352.66 31.20L352.66 43.78L365.24 43.78L365.24 31.20L352.66 31.20M378.82 48.58L373.97 48.58L373.97 26.40L391.88 26.40L391.88 30.77L396.29 30.77L396.29 48.58L391.40 48.58L391.40 31.20L378.82 31.20L378.82 48.58M413.91 57.02L409.06 57.02L409.06 30.77L413.43 30.77L413.43 26.40L426.96 26.40L426.96 30.77L431.38 30.77L431.38 44.26L426.96 44.26L426.96 48.58L413.91 48.58L413.91 57.02M413.91 31.20L413.91 43.78L426.48 43.78L426.48 31.20L413.91 31.20M453.12 48.58L439.59 48.58L439.59 44.26L435.22 44.26L435.22 30.77L439.59 30.77L439.59 26.40L453.12 26.40L453.12 30.77L457.54 30.77L457.54 43.78L461.91 43.78L461.91 48.58L457.06 48.58L457.06 44.26L453.12 44.26L453.12 48.58M440.07 31.20L440.07 43.78L452.64 43.78L452.64 31.20L440.07 31.20M483.34 48.58L469.81 48.58L469.81 44.26L465.44 44.26L465.44 30.77L469.81 30.77L469.81 26.40L483.34 26.40L483.34 30.77L487.76 30.77L487.76 35.52L482.86 35.52L482.86 31.20L470.29 31.20L470.29 43.78L482.86 43.78L482.86 39.41L487.76 39.41L487.76 44.26L483.34 44.26L483.34 48.58M496.45 48.58L491.60 48.58L491.60 17.71L496.45 17.71L496.45 35.04L500.29 35.04L500.29 30.77L509.02 30.77L509.02 26.40L513.92 26.40L513.92 31.20L509.50 31.20L509.50 35.52L500.77 35.52L500.77 39.41L509.50 39.41L509.50 43.78L513.92 43.78L513.92 48.58L509.02 48.58L509.02 44.26L500.29 44.26L500.29 39.89L496.45 39.89"/></g>
  <g transform="translate(357.84315999999984 472.23800000000006)"><path fill="#9ca3af" opacity="0.7" d="M12.12 28.34L4.23 28.34L4.23 25.82L1.68 25.82L1.68 12.88L4.23 12.88L4.23 10.33L12.12 10.33L12.12 12.88L14.70 12.88L14.70 15.68L11.84 15.68L11.84 13.16L4.51 13.16L4.51 17.95L12.12 17.95L12.12 20.44L14.70 20.44L14.70 25.82L12.12 25.82L12.12 28.34M4.51 20.72L4.51 25.54L11.84 25.54L11.84 20.72L4.51 20.72M32.59 28.34L22.15 28.34L22.15 25.54L32.31 25.54L32.31 23.27L24.70 23.27L24.70 20.72L22.15 20.72L22.15 17.95L24.70 17.95L24.70 15.40L35.17 15.40L35.17 18.20L24.98 18.20L24.98 20.44L32.59 20.44L32.59 22.99L35.17 22.99L35.17 25.82L32.59 25.82L32.59 28.34M47.85 28.34L39.95 28.34L39.95 25.82L37.41 25.82L37.41 17.95L39.95 17.95L39.95 15.40L47.85 15.40L47.85 17.95L50.43 17.95L50.43 25.82L47.85 25.82L47.85 28.34M40.23 18.20L40.23 25.54L47.57 25.54L47.57 18.20L40.23 18.20M63.11 28.34L55.21 28.34L55.21 25.82L52.67 25.82L52.67 15.40L55.49 15.40L55.49 25.54L62.83 25.54L62.83 15.40L65.69 15.40L65.69 25.82L63.11 25.82L63.11 28.34M70.75 28.34L67.93 28.34L67.93 17.95L70.47 17.95L70.47 15.40L78.37 15.40L78.37 17.95L80.95 17.95L80.95 20.72L78.09 20.72L78.09 18.20L70.75 18.20L70.75 28.34M93.63 28.34L85.73 28.34L85.73 25.82L83.19 25.82L83.19 17.95L85.73 17.95L85.73 15.40L93.63 15.40L93.63 17.95L96.21 17.95L96.21 20.72L93.35 20.72L93.35 18.20L86.01 18.20L86.01 25.54L93.35 25.54L93.35 22.99L96.21 22.99L96.21 25.82L93.63 25.82L93.63 28.34M108.89 28.34L100.99 28.34L100.99 25.82L98.44 25.82L98.44 17.95L100.99 17.95L100.99 15.40L108.89 15.40L108.89 17.95L111.46 17.95L111.46 20.72L108.61 20.72L108.61 18.20L101.27 18.20L101.27 20.44L106.37 20.44L106.37 23.27L101.27 23.27L101.27 25.54L108.61 25.54L108.61 22.96L111.46 22.96L111.46 25.79L108.89 25.79L108.89 28.34M124.15 28.34L113.70 28.34L113.70 25.54L123.87 25.54L123.87 23.27L116.25 23.27L116.25 20.72L113.70 20.72L113.70 17.95L116.25 17.95L116.25 15.40L126.72 15.40L126.72 18.20L116.53 18.20L116.53 20.44L124.15 20.44L124.15 22.99L126.72 22.99L126.72 25.82L124.15 25.82L124.15 28.34M160.24 28.34L152.34 28.34L152.34 25.82L149.80 25.82L149.80 17.95L152.34 17.95L152.34 15.40L160.24 15.40L160.24 17.95L162.82 17.95L162.82 25.54L165.36 25.54L165.36 28.34L162.54 28.34L162.54 25.82L160.24 25.82L160.24 28.34M152.62 18.20L152.62 25.54L159.96 25.54L159.96 18.20L152.62 18.20M177.87 28.34L169.97 28.34L169.97 25.82L167.42 25.82L167.42 15.40L170.25 15.40L170.25 25.54L177.59 25.54L177.59 15.40L180.44 15.40L180.44 25.82L177.87 25.82L177.87 28.34M195.70 28.34L187.75 28.34L187.75 25.82L185.23 25.82L185.23 18.20L182.68 18.20L182.68 15.40L185.23 15.40L185.23 10.33L188.03 10.33L188.03 15.40L195.70 15.40L195.70 18.20L188.03 18.20L188.03 25.54L195.42 25.54L195.42 22.99L198.25 22.99L198.25 25.82L195.70 25.82L195.70 28.34M210.76 28.34L202.86 28.34L202.86 25.82L200.31 25.82L200.31 17.95L202.86 17.95L202.86 15.40L210.76 15.40L210.76 17.95L213.33 17.95L213.33 25.82L210.76 25.82L210.76 28.34M203.14 18.20L203.14 25.54L210.48 25.54L210.48 18.20L203.14 18.20M231.22 28.34L223.33 28.34L223.33 25.82L220.78 25.82L220.78 15.40L223.61 15.40L223.61 25.54L230.94 25.54L230.94 15.40L233.80 15.40L233.80 25.82L231.22 25.82L231.22 28.34M238.87 33.26L236.04 33.26L236.04 17.95L238.59 17.95L238.59 15.40L246.48 15.40L246.48 17.95L249.06 17.95L249.06 25.82L246.48 25.82L246.48 28.34L238.87 28.34L238.87 33.26M238.87 18.20L238.87 25.54L246.20 25.54L246.20 18.20L238.87 18.20M261.74 28.34L253.85 28.34L253.85 25.82L251.30 25.82L251.30 17.95L253.85 17.95L253.85 15.40L261.49 15.40L261.49 10.33L264.32 10.33L264.32 25.82L261.74 25.82L261.74 28.34M254.13 18.20L254.13 25.54L261.46 25.54L261.46 18.20L254.13 18.20M277 28.34L269.11 28.34L269.11 25.82L266.56 25.82L266.56 17.95L269.11 17.95L269.11 15.40L277 15.40L277 17.95L279.58 17.95L279.58 25.54L282.13 25.54L282.13 28.34L279.30 28.34L279.30 25.82L277 25.82L277 28.34M269.39 18.20L269.39 25.54L276.72 25.54L276.72 18.20L269.39 18.20M297.21 28.34L289.26 28.34L289.26 25.82L286.74 25.82L286.74 18.20L284.19 18.20L284.19 15.40L286.74 15.40L286.74 10.33L289.54 10.33L289.54 15.40L297.21 15.40L297.21 18.20L289.54 18.20L289.54 25.54L296.93 25.54L296.93 22.99L299.76 22.99L299.76 25.82L297.21 25.82L297.21 28.34M304.65 28.34L301.82 28.34L301.82 15.40L304.65 15.40L304.65 28.34M304.65 13.16L301.82 13.16L301.82 10.33L304.65 10.33L304.65 13.16M310.43 28.34L307.60 28.34L307.60 15.40L318.04 15.40L318.04 17.95L320.62 17.95L320.62 28.34L317.76 28.34L317.76 18.20L310.43 18.20L310.43 28.34M333.33 33.40L325.41 33.40L325.41 30.88L322.86 30.88L322.86 28.08L325.69 28.08L325.69 30.60L333.05 30.60L333.05 25.82L325.41 25.82L325.41 23.27L322.86 23.27L322.86 17.95L325.41 17.95L325.41 15.40L333.33 15.40L333.33 17.95L335.88 17.95L335.88 30.88L333.33 30.88L333.33 33.40M325.69 18.20L325.69 22.99L333.05 22.99L333.05 18.20L325.69 18.20M361.78 28.34L358.95 28.34L358.95 15.40L369.39 15.40L369.39 17.95L371.97 17.95L371.97 28.34L369.11 28.34L369.11 18.20L361.78 18.20L361.78 28.34M384.65 28.34L376.76 28.34L376.76 25.82L374.21 25.82L374.21 17.95L376.76 17.95L376.76 15.40L384.65 15.40L384.65 17.95L387.23 17.95L387.23 25.82L384.65 25.82L384.65 28.34M377.04 18.20L377.04 25.54L384.37 25.54L384.37 18.20L377.04 18.20M397.50 28.34L394.68 28.34L394.68 15.40L402.60 15.40L402.60 17.95L404.84 17.95L404.84 15.40L410.24 15.40L410.24 17.95L412.76 17.95L412.76 28.34L409.96 28.34L409.96 18.20L405.12 18.20L405.12 28.34L402.32 28.34L402.32 18.20L397.50 18.20L397.50 28.34M425.09 28.34L417.20 28.34L417.20 25.82L414.65 25.82L414.65 17.95L417.20 17.95L417.20 15.40L425.09 15.40L425.09 17.95L427.67 17.95L427.67 25.54L430.22 25.54L430.22 28.34L427.39 28.34L427.39 25.82L425.09 25.82L425.09 28.34M417.48 18.20L417.48 25.54L424.81 25.54L424.81 18.20L417.48 18.20M435.11 28.34L432.28 28.34L432.28 15.40L435.11 15.40L435.11 28.34M435.11 13.16L432.28 13.16L432.28 10.33L435.11 10.33L435.11 13.16M440.89 28.34L438.06 28.34L438.06 15.40L448.50 15.40L448.50 17.95L451.08 17.95L451.08 28.34L448.22 28.34L448.22 18.20L440.89 18.20L440.89 28.34M466.34 28.34L458.39 28.34L458.39 25.82L455.87 25.82L455.87 18.20L453.32 18.20L453.32 15.40L455.87 15.40L455.87 10.33L458.67 10.33L458.67 15.40L466.34 15.40L466.34 18.20L458.67 18.20L458.67 25.54L466.06 25.54L466.06 22.99L468.89 22.99L468.89 25.82L466.34 25.82L466.34 28.34M481.39 28.34L473.49 28.34L473.49 25.82L470.95 25.82L470.95 17.95L473.49 17.95L473.49 15.40L481.39 15.40L481.39 17.95L483.97 17.95L483.97 20.72L481.11 20.72L481.11 18.20L473.77 18.20L473.77 20.44L478.87 20.44L478.87 23.27L473.77 23.27L473.77 25.54L481.11 25.54L481.11 22.96L483.97 22.96L483.97 25.79L481.39 25.79L481.39 28.34M489.03 28.34L486.21 28.34L486.21 15.40L496.65 15.40L496.65 17.95L499.23 17.95L499.23 28.34L496.37 28.34L496.37 18.20L489.03 18.20L489.03 28.34M511.91 28.34L504.01 28.34L504.01 25.82L501.47 25.82L501.47 17.95L504.01 17.95L504.01 15.40L511.91 15.40L511.91 17.95L514.49 17.95L514.49 25.54L517.03 25.54L517.03 28.34L514.21 28.34L514.21 25.82L511.91 25.82L511.91 28.34M504.29 18.20L504.29 25.54L511.63 25.54L511.63 18.20L504.29 18.20M521.92 28.34L519.09 28.34L519.09 15.40L529.54 15.40L529.54 17.95L532.11 17.95L532.11 28.34L529.26 28.34L529.26 18.20L521.92 18.20L521.92 28.34M544.80 28.34L536.90 28.34L536.90 25.82L534.35 25.82L534.35 17.95L536.90 17.95L536.90 15.40L544.80 15.40L544.80 17.95L547.37 17.95L547.37 20.72L544.52 20.72L544.52 18.20L537.18 18.20L537.18 25.54L544.52 25.54L544.52 22.99L547.37 22.99L547.37 25.82L544.80 25.82L544.80 28.34M560.06 28.34L552.16 28.34L552.16 25.82L549.61 25.82L549.61 17.95L552.16 17.95L552.16 15.40L560.06 15.40L560.06 17.95L562.63 17.95L562.63 20.72L559.78 20.72L559.78 18.20L552.44 18.20L552.44 20.44L557.54 20.44L557.54 23.27L552.44 23.27L552.44 25.54L559.78 25.54L559.78 22.96L562.63 22.96L562.63 25.79L560.06 25.79"/></g>
</svg>
