<svg xmlns="http://www.w3.org/2000/svg" width="532" height="86" viewBox="-6.24 23.424 532 86" role="img" aria-label="anitorrent">
  <title>anitorrent</title>
  <path fill="#0a0a0a" d="M41.57 97.15L14.50 97.15L14.50 88.51L5.76 88.51L5.76 61.54L14.50 61.54L14.50 52.80L41.57 52.80L41.57 61.54L50.40 61.54L50.40 87.55L59.14 87.55L59.14 97.15L49.44 97.15L49.44 88.51L41.57 88.51L41.57 97.15M15.46 62.40L15.46 87.55L40.61 87.55L40.61 62.40L15.46 62.40M75.90 97.15L66.20 97.15L66.20 52.80L102.01 52.80L102.01 61.54L110.84 61.54L110.84 97.15L101.05 97.15L101.05 62.40L75.90 62.40L75.90 97.15M128.22 97.15L118.52 97.15L118.52 52.80L128.22 52.80L128.22 97.15M128.22 45.12L118.52 45.12L118.52 35.42L128.22 35.42L128.22 45.12M182.98 97.15L155.72 97.15L155.72 88.51L147.08 88.51L147.08 62.40L138.34 62.40L138.34 52.80L147.08 52.80L147.08 35.42L156.68 35.42L156.68 52.80L182.98 52.80L182.98 62.40L156.68 62.40L156.68 87.55L182.02 87.55L182.02 78.82L191.72 78.82L191.72 88.51L182.98 88.51L182.98 97.15M234.59 97.15L207.52 97.15L207.52 88.51L198.78 88.51L198.78 61.54L207.52 61.54L207.52 52.80L234.59 52.80L234.59 61.54L243.42 61.54L243.42 88.51L234.59 88.51L234.59 97.15M208.48 62.40L208.48 87.55L233.63 87.55L233.63 62.40L208.48 62.40M260.80 97.15L251.10 97.15L251.10 61.54L259.84 61.54L259.84 52.80L286.91 52.80L286.91 61.54L295.74 61.54L295.74 71.04L285.95 71.04L285.95 62.40L260.80 62.40L260.80 97.15M313.12 97.15L303.42 97.15L303.42 61.54L312.16 61.54L312.16 52.80L339.23 52.80L339.23 61.54L348.06 61.54L348.06 71.04L338.27 71.04L338.27 62.40L313.12 62.40L313.12 97.15M391.55 97.15L364.47 97.15L364.47 88.51L355.74 88.51L355.74 61.54L364.47 61.54L364.47 52.80L391.55 52.80L391.55 61.54L400.38 61.54L400.38 71.04L390.59 71.04L390.59 62.40L365.43 62.40L365.43 70.08L382.91 70.08L382.91 79.78L365.43 79.78L365.43 87.55L390.59 87.55L390.59 78.72L400.38 78.72L400.38 88.42L391.55 88.42L391.55 97.15M417.75 97.15L408.06 97.15L408.06 52.80L443.86 52.80L443.86 61.54L452.70 61.54L452.70 97.15L442.90 97.15L442.90 62.40L417.75 62.40L417.75 97.15M505.01 97.15L477.75 97.15L477.75 88.51L469.11 88.51L469.11 62.40L460.37 62.40L460.37 52.80L469.11 52.80L469.11 35.42L478.71 35.42L478.71 52.80L505.01 52.80L505.01 62.40L478.71 62.40L478.71 87.55L504.05 87.55L504.05 78.82L513.75 78.82L513.75 88.51L505.01 88.51"/>
</svg>
