<svg xmlns="http://www.w3.org/2000/svg" width="567" height="86" viewBox="-6.24 23.424 567 86" role="img" aria-label="anitorrent">
  <title>anitorrent</title>
  <path fill="#0a0a0a" d="M41.57 97.15L14.50 97.15L14.50 88.51L5.76 88.51L5.76 61.54L14.50 61.54L14.50 52.80L41.57 52.80L41.57 61.54L50.40 61.54L50.40 87.55L59.14 87.55L59.14 97.15L49.44 97.15L49.44 88.51L41.57 88.51L41.57 97.15M15.46 62.40L15.46 87.55L40.61 87.55L40.61 62.40L15.46 62.40M80.45 97.15L70.75 97.15L70.75 52.80L106.56 52.80L106.56 61.54L115.39 61.54L115.39 97.15L105.60 97.15L105.60 62.40L80.45 62.40L80.45 97.15M136.70 97.15L127.01 97.15L127.01 52.80L136.70 52.80L136.70 97.15M136.70 45.12L127.01 45.12L127.01 35.42L136.70 35.42L136.70 45.12M192.96 97.15L165.70 97.15L165.70 88.51L157.06 88.51L157.06 62.40L148.32 62.40L148.32 52.80L157.06 52.80L157.06 35.42L166.66 35.42L166.66 52.80L192.96 52.80L192.96 62.40L166.66 62.40L166.66 87.55L192 87.55L192 78.82L201.70 78.82L201.70 88.51L192.96 88.51L192.96 97.15M249.12 97.15L222.05 97.15L222.05 88.51L213.31 88.51L213.31 61.54L222.05 61.54L222.05 52.80L249.12 52.80L249.12 61.54L257.95 61.54L257.95 88.51L249.12 88.51L249.12 97.15M223.01 62.40L223.01 87.55L248.16 87.55L248.16 62.40L223.01 62.40M279.26 97.15L269.57 97.15L269.57 61.54L278.30 61.54L278.30 52.80L305.38 52.80L305.38 61.54L314.21 61.54L314.21 71.04L304.42 71.04L304.42 62.40L279.26 62.40L279.26 97.15M335.52 97.15L325.82 97.15L325.82 61.54L334.56 61.54L334.56 52.80L361.63 52.80L361.63 61.54L370.46 61.54L370.46 71.04L360.67 71.04L360.67 62.40L335.52 62.40L335.52 97.15M417.89 97.15L390.82 97.15L390.82 88.51L382.08 88.51L382.08 61.54L390.82 61.54L390.82 52.80L417.89 52.80L417.89 61.54L426.72 61.54L426.72 71.04L416.93 71.04L416.93 62.40L391.78 62.40L391.78 70.08L409.25 70.08L409.25 79.78L391.78 79.78L391.78 87.55L416.93 87.55L416.93 78.72L426.72 78.72L426.72 88.42L417.89 88.42L417.89 97.15M448.03 97.15L438.34 97.15L438.34 52.80L474.14 52.80L474.14 61.54L482.98 61.54L482.98 97.15L473.18 97.15L473.18 62.40L448.03 62.40L448.03 97.15M539.23 97.15L511.97 97.15L511.97 88.51L503.33 88.51L503.33 62.40L494.59 62.40L494.59 52.80L503.33 52.80L503.33 35.42L512.93 35.42L512.93 52.80L539.23 52.80L539.23 62.40L512.93 62.40L512.93 87.55L538.27 87.55L538.27 78.82L547.97 78.82L547.97 88.51L539.23 88.51"/>
</svg>
